<svg id="Layer_1" data-name="Layer 1" xmlns="http://www.w3.org/2000/svg" width="453.65" height="64.42" viewBox="0 0 453.65 64.42"><title>c&amp;amp;b</title><g id="HWMioz.tif"><path d="M211.63,64.42c-2.23-1.07-4.67-1.85-6.66-3.26-7.13-5.06-8.86-14.13-4.35-21.88a24.82,24.82,0,0,1,10.9-9.76l.91-.44s0-.06.11-.17c-.84-1.15-1.73-2.31-2.57-3.5-2.77-3.94-4.07-8.23-3-13.05A13.09,13.09,0,0,1,219,1.79a19.19,19.19,0,0,1,10.8,1.73,14.48,14.48,0,0,1,4.16,22.57,45,45,0,0,1-4.34,3.8c-.6.51-1.25,1-2,1.5l3.63,5L235,41.54a26.9,26.9,0,0,0,3.59-9.59h9.85c-.26,1.39-.46,2.7-.75,4-1.09,4.86-2.58,9.56-5.84,13.47-.47.56-.13.87.17,1.26l8.8,11.54c.25.33.48.67.84,1.16-.47,0-.77.1-1.08.1-3.59,0-7.18,0-10.77,0a2.42,2.42,0,0,1-1.58-.77c-1.31-1.51-2.51-3.11-3.83-4.77-.64.51-1.23,1-1.85,1.47a32.09,32.09,0,0,1-10.31,4.8c-.21.06-.42.16-.62.24ZM218.52,37c-3.08,2.11-6,4.29-7.88,7.48a6,6,0,0,0,0,6.74,7.05,7.05,0,0,0,6.55,3.58c4.18-.3,7.72-2.38,11-5Zm3.13-13c1.64-1.52,3.18-2.78,4.52-4.23a4.94,4.94,0,0,0,1.22-4.63,5.08,5.08,0,0,0-4.3-4.1,5.22,5.22,0,0,0-5.36,2.15,4.56,4.56,0,0,0,0,5.6C218.82,20.47,220.18,22,221.65,24Z"/><path d="M35.38,0A54.45,54.45,0,0,1,41,1.25C53.45,5.4,60.87,14,63.46,26.86a3.19,3.19,0,0,1,.05.45c0,.15,0,.3,0,.61H62.27c-3,0-6,0-9,0a1.43,1.43,0,0,1-1.65-1.17c-2.56-7.33-7.37-12.5-15-14.35A20.11,20.11,0,0,0,12,28.92c-1.75,11.59,5.37,21.36,17.06,23.14,9,1.37,17-2.72,20.94-10.26a3.94,3.94,0,0,0,.5-1.13c.22-1.45,1-1.76,2.43-1.7,2.87.12,5.74,0,8.62,0h1.57c-.65,2.17-1.07,4.2-1.84,6.09C57.41,54.54,50.14,60.2,40.55,63a68.43,68.43,0,0,1-8.11,1.4h-.91a55,55,0,0,1-7-1.18c-12-3.6-20.34-11-23.7-23.43C.45,38.44.27,37,0,35.61q0-3.18,0-6.35c.14-.77.28-1.55.42-2.32C2.89,13.95,10.36,5.33,23,1.31c2-.62,4-.88,6-1.31Z"/><path d="M176.24,64.42a48.89,48.89,0,0,1-5.46-.83c-9.47-2.51-15-8.86-17-18.26-1.56-7.34-.34-14.23,4.41-20.22s11.11-8.45,18.67-8c10.78.68,17.44,8.22,19.73,18a58.67,58.67,0,0,1,.91,6.49,21.46,21.46,0,0,1,0,2.39H164.89a8.28,8.28,0,0,0,1.94,5.66,12.07,12.07,0,0,0,12.53,4.06,9.26,9.26,0,0,0,5.15-3.87,1.76,1.76,0,0,1,1.68-.85c3.51,0,7,0,10.54,0a1.37,1.37,0,0,1,.31.11,15.31,15.31,0,0,1-2.55,5.82,20.87,20.87,0,0,1-16.22,9.29c-.37,0-.74.12-1.11.19Zm8.27-29.1c.4-2.75-1.37-6-4.11-7.68a10.53,10.53,0,0,0-11.42.55,8.61,8.61,0,0,0-3.62,7.14Z"/><path d="M420.08,64.42c-1.79-.26-3.61-.38-5.36-.8A22.9,22.9,0,0,1,397.6,44.83c-1.2-7.22,0-13.87,4.6-19.66s11-8.33,18.5-7.82c11.1.75,17.67,8.81,19.77,18.5a59.85,59.85,0,0,1,.75,6.51c.05.51,0,1,0,1.69H408.65a16.66,16.66,0,0,0,.24,2.09A11.06,11.06,0,0,0,418.21,54c2.78.29,5.47.11,7.76-1.68a24,24,0,0,0,2.31-2.46c.27-.28.61-.68.93-.68,3.44-.05,6.88,0,10.32,0,.33,0,.67,0,1.21.07a24,24,0,0,1-.81,2.61c-3,6.83-8.38,10.68-15.58,12.16-1.1.23-2.23.31-3.35.46ZM409.27,35.36h19.13c.28-5-4.11-9-9.6-8.9S408.91,30.67,409.27,35.36Z"/><path d="M102.07,64.42A47.74,47.74,0,0,1,96,62.08c-8.92-4.85-9.42-16.53-1-22.23,3.47-2.36,7.42-3.26,11.49-3.8,2.77-.37,5.54-.7,8.29-1.15,1.44-.24,2.85-.78,3.33-2.36a4.19,4.19,0,0,0-1.41-4.4,7.33,7.33,0,0,0-2-1.4,11.73,11.73,0,0,0-8.62-.32,6.14,6.14,0,0,0-4.1,4.76c-.21.92-.6,1.11-1.45,1.09-2.61,0-5.21,0-7.82,0-.37,0-.73,0-1.18-.06.19-4.73,1.8-8.61,5.81-11.24A20.24,20.24,0,0,1,106,18a29.79,29.79,0,0,1,14.52,1.26c4.78,1.8,8,5,8.9,10.22a18.36,18.36,0,0,1,.17,2.94q0,10.77,0,21.54A26.78,26.78,0,0,0,131,62.77c.06.17.09.35.16.65-.44,0-.8.06-1.16.06-3,0-6,0-9.07,0-.81,0-1.14-.25-1.24-1.05a23.62,23.62,0,0,0-.6-2.5l-2,1.33a24,24,0,0,1-7.82,3.14Zm15.39-23.26c-4.06,1.07-7.94,2-11.76,3.15a14.63,14.63,0,0,0-4.24,2.07,4.67,4.67,0,0,0,.17,7.85A7.31,7.31,0,0,0,104,55.3a14.71,14.71,0,0,0,8.85-1,7,7,0,0,0,4.25-4.56C118,47,117.82,44.2,117.46,41.16Z"/><path d="M314.84,64.42a47.34,47.34,0,0,1-6-2.25c-9.34-5-9.63-17-.62-22.57a26,26,0,0,1,10.26-3.31l8.3-1.13a7.08,7.08,0,0,0,.88-.21c3.48-.95,4.29-3.58,1.87-6.27A7.09,7.09,0,0,0,327.31,27a11.25,11.25,0,0,0-8.71-.27A6,6,0,0,0,314.86,31c-.13.43-.23.87-.36,1.36H304.11a39.09,39.09,0,0,1,.87-4.66,12.28,12.28,0,0,1,8.35-8.15,29.22,29.22,0,0,1,19.76,0c4.49,1.64,7.65,4.65,8.61,9.54a18.14,18.14,0,0,1,.31,3.38q0,10.49,0,21a25.64,25.64,0,0,0,1.62,9.42,4.59,4.59,0,0,1,.12.58h-2.18c-2.61,0-5.22,0-7.82,0-.92,0-1.4-.2-1.5-1.17a16.85,16.85,0,0,0-.51-2.17c-.12,0-.22-.06-.26,0a25.58,25.58,0,0,1-9.38,4.28Zm16.19-23c-2.2.53-4.28.93-6.28,1.55a78.57,78.57,0,0,0-8.49,3,4.65,4.65,0,0,0-2.79,5.21c.3,2.19,1.81,3.33,3.73,4,3.26,1.08,6.42.4,9.49-.78a6.81,6.81,0,0,0,4.15-4.78C331.59,46.92,331.35,44.25,331,41.38Z"/><path d="M453.65,63.51H443.29V3.63h10.37Z"/><path d="M289.06,31.21c.36.18.58.3.81.41A16.65,16.65,0,0,1,300.17,48c-.2,6.9-4.68,12.51-11.83,14.59a21.63,21.63,0,0,1-5.79.87c-9.71.09-19.43,0-29.14.06-1.08,0-1.4-.28-1.4-1.38q0-28.8,0-57.6c0-1.05.3-1.33,1.34-1.33,8.47,0,16.93,0,25.4,0,5,0,9.7.9,13.79,4,6.73,5.05,7.39,15.69,1.28,21a28.87,28.87,0,0,1-3.18,2.15C290.16,30.61,289.66,30.86,289.06,31.21ZM263.45,54a5.19,5.19,0,0,0,.7.1c4.38,0,8.77.05,13.15,0a11.16,11.16,0,0,0,6.53-2.27,7,7,0,0,0,3-5.36c.38-5.69-2.25-9.28-7.83-9.71-5.07-.39-10.19-.16-15.28-.19-.06,0-.12.07-.23.13Zm-.19-41.1V27.36a3,3,0,0,0,.5.1c4.57,0,9.14.13,13.7-.11a11.77,11.77,0,0,0,5.06-1.7c3.68-2.15,4.64-8.82-.34-11.3A13.84,13.84,0,0,0,277,13c-3.31-.21-6.64-.06-10-.07Z"/><path d="M130,17.7h5.75V4.31H147.4V18h3.91c1,0,2,0,3.06,0,.27,0,.73.43.74.67.05,2.49,0,5,0,7.66h-7.68v1.41q0,11.05,0,22.1c0,3.32,1.48,4.85,4.8,5,1.06,0,2.12,0,3.17,0,.3,0,.81.38.82.59.06,2.67,0,5.35,0,8-.17.11-.23.19-.29.19-4.18-.11-8.41.12-12.53-.42-4.55-.6-7.52-4.34-7.59-9-.12-7.86-.06-15.72-.07-23.58,0-1-.06-2,0-2.95s-.21-1.37-1.25-1.3a30.22,30.22,0,0,1-3.74,0c-.28,0-.78-.4-.78-.63C130,23.15,130,20.51,130,17.7Z"/><path d="M345.31,19.3h11.63v4.22l1.22-1.21c2.29-2.21,4.79-4.1,8.06-4.49a19.94,19.94,0,0,1,3.72.08.87.87,0,0,1,.61.59c0,3.4,0,6.79,0,10.3l-1.52-.22c-5.9-.8-10,2-11.32,7.82a25.94,25.94,0,0,0-.58,5.39c0,6.8,0,13.61,0,20.41,0,.95-.19,1.33-1.24,1.31-3.21-.07-6.43,0-9.64,0-.72,0-1.1-.11-1.1-1q0-21.26,0-42.53C345.25,19.81,345.28,19.62,345.31,19.3Z"/><path d="M65.62,19.07H76.86v4.22c3.89-3.9,7.92-6.76,13.65-5.53V28.28c-1.6,0-3.13-.12-4.65,0a8.51,8.51,0,0,0-7.2,5.31,19.22,19.22,0,0,0-1.5,8.29c0,6.8,0,13.61,0,20.41,0,.33,0,.67-.05,1.09H65.62Z"/><path d="M384.63,63.41H373.21V19.34h11.23v3.77c2.08-1.45,4.08-3,6.26-4.31a10.46,10.46,0,0,1,7.54-.82V28.79c-1-.14-1.9-.32-2.82-.39-5.16-.36-9.13,2.79-10.22,8.27a30.21,30.21,0,0,0-.49,5.62c-.05,6.69,0,13.37,0,20.06C384.7,62.69,384.66,63,384.63,63.41Z"/></g></svg>