<svg id="Layer_1" data-name="Layer 1" xmlns="http://www.w3.org/2000/svg" width="543.12" height="543" viewBox="0 0 543.12 543"><defs><style>.cls-1{fill:#8799bd;}.cls-2{fill:#617391;}.cls-3{fill:#fff;}</style></defs><title>map</title><path class="cls-1" d="M190.32,255.8a25.77,25.77,0,0,0-4.2-6.47c-.93-1-1.85-2.12-2.87-3.09a28.59,28.59,0,0,0-13-7.16,27.7,27.7,0,0,0-3.83-.69,17.13,17.13,0,0,0-2.15-.15.88.88,0,0,1-.39,0h-1.61c-.08.07-.18,0-.26,0a25.86,25.86,0,0,0-6,.85,28.4,28.4,0,0,0-17.61,13,27.76,27.76,0,0,0-3.95,14.59c0,.91,0,1.82,0,2.72a30.73,30.73,0,0,0,1.23,7.74,45.85,45.85,0,0,0,3.55,8.72,86,86,0,0,0,5.4,8.92c2.38,3.5,4.92,6.87,7.48,10.24,1.52,2,3,4,4.58,6,.93,1.21,2,2.35,3,3.47.78.85,1.57,1.69,2.35,2.53.46.5.93,1,1.35,1.52.11,0,.15-.11.2-.18,1.92-2.26,3.86-4.52,5.75-6.8.84-1,1.6-2.07,2.4-3.11,2.87-3.77,5.69-7.58,8.34-11.51a106.17,106.17,0,0,0,6.83-11.48,59.72,59.72,0,0,0,3.9-9.56,38.12,38.12,0,0,0,1.34-6.17,17.68,17.68,0,0,0,.2-2.62c0-.47.07-.94.06-1.41A24.55,24.55,0,0,0,190.32,255.8Zm-5.53,12.91a17.06,17.06,0,0,1-.17,2.26,21.5,21.5,0,0,1-.67,3.38,21.9,21.9,0,0,1-1.18,3.23,22.78,22.78,0,0,1-1.77,3.16,22.15,22.15,0,0,1-1.84,2.35c-.24.27-.49.54-.74.79a21.7,21.7,0,0,1-5.91,4.24,21.16,21.16,0,0,1-3.71,1.37,19.73,19.73,0,0,1-2.52.51c-.54.07-1.09.12-1.63.15s-.78.05-1.17.05c-.64,0-1.27-.06-1.91-.11s-1.19-.14-1.78-.24a19.71,19.71,0,0,1-2.27-.54,20.44,20.44,0,0,1-7.23-3.83,20.25,20.25,0,0,1-1.82-1.64,22.23,22.23,0,0,1-3.17-4.13,21.88,21.88,0,0,1-2.2-5,23.13,23.13,0,0,1-.73-3.3,22.86,22.86,0,0,1-.22-4.21c0-.59.08-1.17.15-1.76a22.45,22.45,0,0,1,.67-3.34,22,22,0,0,1,1.17-3.24,23.08,23.08,0,0,1,1.72-3.12c.43-.64.9-1.26,1.4-1.87s1-1.13,1.57-1.68a18.76,18.76,0,0,1,2.47-2.08,18.5,18.5,0,0,1,2.93-1.76,20.6,20.6,0,0,1,4.82-1.69c.8-.17,1.61-.3,2.42-.39a18.3,18.3,0,0,1,3.14-.06,20.24,20.24,0,0,1,5.65,1.12,20,20,0,0,1,3,1.28,21.94,21.94,0,0,1,3.53,2.36c.43.35.82.73,1.22,1.1a21.28,21.28,0,0,1,3.45,4.24,22.5,22.5,0,0,1,3,7.93c.09.53.16,1.06.21,1.6a18.09,18.09,0,0,1,.11,2.33Z" transform="translate(-77 -34)"/><path class="cls-2" d="M184.68,265.87c0-.54-.12-1.07-.21-1.6a22.5,22.5,0,0,0-3-7.93A21.28,21.28,0,0,0,178,252.1c-.4-.37-.79-.75-1.22-1.1a21.94,21.94,0,0,0-3.53-2.36,20,20,0,0,0-3-1.28,20.24,20.24,0,0,0-5.65-1.12,18.3,18.3,0,0,0-3.14.06c-.81.09-1.62.22-2.42.39a20.6,20.6,0,0,0-4.82,1.69,18.5,18.5,0,0,0-2.93,1.76,18.76,18.76,0,0,0-2.47,2.08c-.54.55-1.08,1.09-1.57,1.68s-1,1.23-1.4,1.87a23.08,23.08,0,0,0-1.72,3.12,22,22,0,0,0-1.17,3.24,22.45,22.45,0,0,0-.67,3.34c-.07.59-.13,1.17-.15,1.76a22.86,22.86,0,0,0,.22,4.21,23.13,23.13,0,0,0,.73,3.3,21.88,21.88,0,0,0,2.2,5,22.23,22.23,0,0,0,3.17,4.13,20.25,20.25,0,0,0,1.82,1.64,20.44,20.44,0,0,0,7.23,3.83,19.71,19.71,0,0,0,2.27.54c.59.1,1.18.19,1.78.24s1.27.11,1.91.11c.39,0,.78,0,1.17-.05s1.09-.08,1.63-.15a19.73,19.73,0,0,0,2.52-.51,21.16,21.16,0,0,0,3.71-1.37,21.7,21.7,0,0,0,5.91-4.24c.25-.25.5-.52.74-.79a22.15,22.15,0,0,0,1.84-2.35,22.78,22.78,0,0,0,1.77-3.16,21.9,21.9,0,0,0,1.18-3.23,21.5,21.5,0,0,0,.67-3.38,17.06,17.06,0,0,0,.17-2.26v-.51A18.09,18.09,0,0,0,184.68,265.87Zm-12.35,13.06a13.65,13.65,0,0,1-6.91,3.28,16.79,16.79,0,0,1-2.25.2A14,14,0,0,1,151,275.2a13.83,13.83,0,0,1-1.85-5.81,14.47,14.47,0,0,1,8-14.45,13.82,13.82,0,0,1,5-1.35,14,14,0,0,1,13.47,7.58,13.84,13.84,0,0,1,1.62,5.72A14.29,14.29,0,0,1,172.33,278.93Z" transform="translate(-77 -34)"/><path class="cls-3" d="M172.33,278.93a13.65,13.65,0,0,1-6.91,3.28,16.79,16.79,0,0,1-2.25.2A14,14,0,0,1,151,275.2a13.83,13.83,0,0,1-1.85-5.81,14.47,14.47,0,0,1,8-14.45,13.82,13.82,0,0,1,5-1.35,14,14,0,0,1,13.47,7.58,13.84,13.84,0,0,1,1.62,5.72A14.29,14.29,0,0,1,172.33,278.93Z" transform="translate(-77 -34)"/><path class="cls-3" d="M77,219.42v-8.84l469.15-90c.32-.06,35.9-7.68,73.85-8.68l.12,9.6a485.76,485.76,0,0,0-72.24,7.91Z" transform="translate(-77 -34)"/><path class="cls-3" d="M77,206v-8.84l469.15-90c.32-.06,36-7.08,74-8.08v9A485.76,485.76,0,0,0,547.88,116Z" transform="translate(-77 -34)"/><path class="cls-3" d="M418.29,431.8l-238.6-16.32.61-9,229.4,15.68,7.12-163.71a324.35,324.35,0,0,0-5.6-75.63L382.58,34h8.84l28.64,147.14a333.37,333.37,0,0,1,5.75,77.73Z" transform="translate(-77 -34)"/><polygon class="cls-3" points="543 421.59 335.96 397.47 337 388.53 543 412.53 543 421.59"/><rect class="cls-3" x="123.22" y="293.99" width="232.61" height="9" transform="translate(-150.93 484.07) rotate(-86.27)"/><polygon class="cls-3" points="202.52 383.85 193.55 383.15 204.85 237.27 411.59 248.54 543 265.83 543 274.91 410.58 257.48 213.15 246.73 202.52 383.85"/><rect class="cls-3" x="254.13" y="322.13" width="9" height="44.09" transform="translate(-170.25 558.23) rotate(-88.26)"/><polygon class="cls-1" points="0 543 0 430 16.5 435.5 81 439.5 152.5 443 333 466 543 486.5 543 543 0 543"/><g id="_41NTT9.tif" data-name="41NTT9.tif"><path d="M543.14,107.64v-1a1.71,1.71,0,0,1-.25-.16l-7.66-7.2-.11-.12h-1a10.73,10.73,0,0,1-7.2,2.91,16.8,16.8,0,0,1-9.32-2.79.53.53,0,0,1-.12-.11h-.87c-1.14.6-2.24,1.27-3.42,1.76a14.16,14.16,0,0,1-6.41,1.13,10.76,10.76,0,0,1-6.11-2.32c-.25-.19-.47-.39-.71-.57h-1.06c-.06.07-.11.16-.17.22l-7.56,7.07a1.89,1.89,0,0,1-.27.2v1a28.42,28.42,0,0,1,4,8.14,7.2,7.2,0,0,1-.19,4c-.72,2.43-1.52,4.84-2.24,7.27a27.68,27.68,0,0,0-1.39,7.24,10.3,10.3,0,0,0,1.85,6.27,14.87,14.87,0,0,0,10.07,6.25c1.64.3,3.32.41,5,.73a27.07,27.07,0,0,1,7,2.26,8.55,8.55,0,0,1,1,.78H516c.1-.06.2-.17.3-.17l1.78.06a.3.3,0,0,0,.19,0,11.84,11.84,0,0,1,4.06-1.91,32.73,32.73,0,0,1,6.45-1.45,25.23,25.23,0,0,0,3.23-.42c4.69-1.12,8.3-3.65,10.3-8.17a10.33,10.33,0,0,0,.67-5.38c-.36-3.49-1.56-6.77-2.6-10.1-.41-1.29-.77-2.61-1.13-3.92a6.54,6.54,0,0,1,.12-3.81A29.35,29.35,0,0,1,543.14,107.64Zm-6,13.9c.84,2.84,1.78,5.66,2.57,8.53a21.94,21.94,0,0,1,.66,4,8.17,8.17,0,0,1-2.73,6.66,12.51,12.51,0,0,1-7.91,3.6,34.3,34.3,0,0,0-11.09,2.79c-.47.21-.92.5-1.38.73a.51.51,0,0,1-.42,0,24.62,24.62,0,0,0-7.33-2.67c-2-.42-4-.65-6-1a12,12,0,0,1-8.94-5.91,7.88,7.88,0,0,1-.89-4.84,48.41,48.41,0,0,1,2.34-9.17c.53-1.73,1-3.45,1.45-5.19a9.69,9.69,0,0,0-.63-5.76,33.7,33.7,0,0,0-2.67-5.46c-.09-.14-.17-.3-.29-.47l5.58-5.22c1,.52,2,1.07,3,1.5a13.61,13.61,0,0,0,6.79.83,19.73,19.73,0,0,0,7.39-2.43.6.6,0,0,1,.67,0,20,20,0,0,0,6.36,2.26,14,14,0,0,0,10.57-2.11,2.56,2.56,0,0,1,.22-.14l5.58,5.23c-.75,1.44-1.52,2.82-2.19,4.25a14.14,14.14,0,0,0-1.54,5.49A13.65,13.65,0,0,0,537.11,121.54Z" transform="translate(-77 -34)"/><path class="cls-3" d="M537.61,140.75a12.51,12.51,0,0,1-7.91,3.6,34.3,34.3,0,0,0-11.09,2.79c-.47.21-.92.5-1.38.73a.51.51,0,0,1-.42,0,24.62,24.62,0,0,0-7.33-2.67c-2-.42-4-.65-6-1a12,12,0,0,1-8.94-5.91,7.88,7.88,0,0,1-.89-4.84,48.41,48.41,0,0,1,2.34-9.17c.53-1.73,1-3.45,1.45-5.19a9.69,9.69,0,0,0-.63-5.76,33.7,33.7,0,0,0-2.67-5.46c-.09-.14-.17-.3-.29-.47l5.58-5.22c1,.52,2,1.07,3,1.5a13.61,13.61,0,0,0,6.79.83,19.73,19.73,0,0,0,7.39-2.43.6.6,0,0,1,.67,0,20,20,0,0,0,6.36,2.26,14,14,0,0,0,10.57-2.11,2.56,2.56,0,0,1,.22-.14l5.58,5.23c-.75,1.44-1.52,2.82-2.19,4.25a14.14,14.14,0,0,0-1.54,5.49,13.65,13.65,0,0,0,.76,4.41c.84,2.84,1.78,5.66,2.57,8.53a21.94,21.94,0,0,1,.66,4A8.17,8.17,0,0,1,537.61,140.75Z" transform="translate(-77 -34)"/></g><path d="M512.41,115.27a6.43,6.43,0,0,1,2.17,2.63,8.29,8.29,0,0,1,.75,3.5,14.63,14.63,0,0,1-.81,4.56,13.43,13.43,0,0,1-2.66,4.6,10.23,10.23,0,0,1-4.75,3.05,1.54,1.54,0,0,1-.49.08,1.46,1.46,0,0,1-.94-.31,1.12,1.12,0,0,1-.39-.94,1.22,1.22,0,0,1,.3-.81,1.55,1.55,0,0,1,.81-.49,9.72,9.72,0,0,0,3.57-2.28,9,9,0,0,0,2.32-3.66,5.11,5.11,0,0,1-3.66,1.52,5.2,5.2,0,0,1-2.84-.85,6.26,6.26,0,0,1-2.14-2.31,6.34,6.34,0,0,1-.8-3.11,6,6,0,0,1,.83-3.08,6.26,6.26,0,0,1,2.24-2.27,6,6,0,0,1,3.12-.84A5.71,5.71,0,0,1,512.41,115.27Zm-.73,7.92a3.89,3.89,0,0,0,1-2.77,3.76,3.76,0,0,0-1-2.67,3.48,3.48,0,0,0-2.66-1.1,3.38,3.38,0,0,0-2.55,1.09,3.78,3.78,0,0,0-1,2.71,4,4,0,0,0,1,2.74A3.24,3.24,0,0,0,509,124.3,3.54,3.54,0,0,0,511.68,123.19Z" transform="translate(-77 -34)"/><path d="M529.72,125.66a4.44,4.44,0,0,1,.77,2.5,5,5,0,0,1-.81,2.75,5.83,5.83,0,0,1-2.22,2,6.78,6.78,0,0,1-6.19,0,5.83,5.83,0,0,1-2.22-2,5,5,0,0,1-.81-2.75,4.34,4.34,0,0,1,.77-2.56,6.18,6.18,0,0,1,2-1.8,4.78,4.78,0,0,1-1.66-1.56,4.12,4.12,0,0,1-.65-2.32,5,5,0,0,1,.76-2.69,5.45,5.45,0,0,1,2-1.93,6.13,6.13,0,0,1,5.71,0,5.33,5.33,0,0,1,2,1.93,5.06,5.06,0,0,1,.75,2.69,4,4,0,0,1-.68,2.35,4.87,4.87,0,0,1-1.68,1.51A5.93,5.93,0,0,1,529.72,125.66Zm-2.82,4.72a2.87,2.87,0,0,0,1-2.25,2.92,2.92,0,0,0-1-2.28,3.66,3.66,0,0,0-2.51-.92,3.61,3.61,0,0,0-2.5.92,2.94,2.94,0,0,0-1,2.28,2.89,2.89,0,0,0,1,2.25,3.65,3.65,0,0,0,2.52.9A3.7,3.7,0,0,0,526.9,130.38Zm-4.76-12.56a2.86,2.86,0,0,0-.87,2.14,2.83,2.83,0,0,0,.9,2.13,3.06,3.06,0,0,0,2.2.85,3,3,0,0,0,2.17-.85,2.83,2.83,0,0,0,.9-2.13,2.86,2.86,0,0,0-.87-2.14,3,3,0,0,0-2.2-.84A3.06,3.06,0,0,0,522.14,117.82Z" transform="translate(-77 -34)"/><path d="M215.4,312.75a.72.72,0,0,1,.55-.18l9.65.76a.75.75,0,0,1,.7.84.8.8,0,0,1-.26.56.73.73,0,0,1-.57.18l-7.38-.58,4.44,3.46a.93.93,0,0,1,.22.3.56.56,0,0,1,.05.35.55.55,0,0,1-.11.32.93.93,0,0,1-.26.26l-5.08,2.73,7.53.59a.78.78,0,0,1,.53.24.7.7,0,0,1,.17.55.68.68,0,0,1-.26.5.78.78,0,0,1-.57.16l-9.65-.76a.78.78,0,0,1-.7-.84.8.8,0,0,1,.13-.37.81.81,0,0,1,.28-.28l6-3.33-5.42-4.28a.77.77,0,0,1-.3-.67A.81.81,0,0,1,215.4,312.75Z" transform="translate(-77 -34)"/><path d="M218.89,303a.77.77,0,0,1,.58-.17l6.92.55a.75.75,0,0,1,.52.26.73.73,0,0,1,.18.57.72.72,0,0,1-.26.53.76.76,0,0,1-.57.16l-.42,0a3.41,3.41,0,0,1,.86,1.21,3.18,3.18,0,0,1,.27,1.58,3.61,3.61,0,0,1-.71,1.93,3.84,3.84,0,0,1-1.66,1.27,5.27,5.27,0,0,1-4.48-.35,3.87,3.87,0,0,1-1.45-1.5,3.65,3.65,0,0,1,.07-3.52,3.27,3.27,0,0,1,1-1.09l-.38,0a.8.8,0,0,1-.54-.25.71.71,0,0,1-.18-.56A.75.75,0,0,1,218.89,303Zm6.43,3a2.59,2.59,0,0,0-1-1,3.65,3.65,0,0,0-3-.24,2.65,2.65,0,0,0-1.13.83,2.34,2.34,0,0,0-.5,1.3,2.37,2.37,0,0,0,.28,1.36,2.59,2.59,0,0,0,1,1,3.69,3.69,0,0,0,3,.24,2.59,2.59,0,0,0,1.13-.83,2.52,2.52,0,0,0,.21-2.66Z" transform="translate(-77 -34)"/><path d="M220.64,298.33l4.75.38q.8.06.85-.65a1.19,1.19,0,0,0,0-.31,1.15,1.15,0,0,1,0-.31.44.44,0,0,1,.2-.34.67.67,0,0,1,1,.32,1.61,1.61,0,0,1,.17.88,3.89,3.89,0,0,1-.19,1,1.43,1.43,0,0,1-.63.74,2.29,2.29,0,0,1-1.41.23l-4.82-.38-.07.93a.68.68,0,0,1-.76.65.65.65,0,0,1-.48-.24.7.7,0,0,1-.15-.52l.07-.93-1.34-.11a.76.76,0,0,1-.53-.26.73.73,0,0,1-.18-.57.72.72,0,0,1,.27-.52.75.75,0,0,1,.56-.17l1.34.11.1-1.32a.68.68,0,0,1,.76-.65.66.66,0,0,1,.48.24.7.7,0,0,1,.15.52Z" transform="translate(-77 -34)"/><path d="M221.12,292.27l4.75.38q.8.06.85-.65a1.19,1.19,0,0,0,0-.31,1.19,1.19,0,0,1,0-.31.44.44,0,0,1,.2-.34.67.67,0,0,1,1,.32,1.59,1.59,0,0,1,.17.88,3.93,3.93,0,0,1-.19,1,1.43,1.43,0,0,1-.63.74,2.29,2.29,0,0,1-1.41.23l-4.82-.38-.07.93a.68.68,0,0,1-.76.65.65.65,0,0,1-.48-.24.7.7,0,0,1-.15-.52l.07-.93-1.34-.11a.75.75,0,0,1-.53-.26.73.73,0,0,1-.18-.57.71.71,0,0,1,.27-.52.75.75,0,0,1,.56-.17l1.34.11.1-1.32a.68.68,0,0,1,.76-.65.65.65,0,0,1,.48.24.7.7,0,0,1,.15.52Z" transform="translate(-77 -34)"/><path d="M223.82,281.65l4.26.34a.75.75,0,0,1,.53.26.73.73,0,0,1,.18.57.71.71,0,0,1-.27.52.75.75,0,0,1-.56.17l-4.26-.34q-2.07-.16-2.21,1.59a2.17,2.17,0,0,0,.48,1.61,2,2,0,0,0,1.43.74l4.26.34a.75.75,0,0,1,.53.26.73.73,0,0,1,.18.57.72.72,0,0,1-.26.53.76.76,0,0,1-.57.16l-10.27-.81a.76.76,0,0,1-.53-.26.71.71,0,0,1-.18-.55.73.73,0,0,1,.27-.53.76.76,0,0,1,.56-.17l4,.32a3.4,3.4,0,0,1-1-1.2,2.89,2.89,0,0,1-.32-1.57Q220.34,281.38,223.82,281.65Z" transform="translate(-77 -34)"/><path d="M225.57,272.37a.77.77,0,0,1,.16.54l-.44,5.61a2.78,2.78,0,0,0,1.94-.74,2.72,2.72,0,0,0,.85-1.83,3,3,0,0,0-.12-1.26,3.14,3.14,0,0,0-.51-.89.9.9,0,0,1-.11-.47.61.61,0,0,1,.23-.44.63.63,0,0,1,.46-.15.79.79,0,0,1,.58.37,3.75,3.75,0,0,1,.68,1.29,4,4,0,0,1,.2,1.59,4.65,4.65,0,0,1-.72,2.23,3.78,3.78,0,0,1-1.64,1.4,4.5,4.5,0,0,1-2.24.36,4.87,4.87,0,0,1-2.31-.74,4,4,0,0,1-1.44-1.57,3.75,3.75,0,0,1,.29-3.85,4,4,0,0,1,1.56-1.32,4.15,4.15,0,0,1,2.12-.4A.68.68,0,0,1,225.57,272.37Zm-3,5a2.48,2.48,0,0,0,1.49,1l.37-4.71h-.13a2,2,0,0,0-1.45.65,2.4,2.4,0,0,0-.66,1.5A2.48,2.48,0,0,0,222.53,277.38Z" transform="translate(-77 -34)"/><path d="M222.33,259.76a.75.75,0,0,1,.57-.17,1,1,0,0,1,.3.09l6.7,3a.72.72,0,0,1,.36.35.75.75,0,0,1,.06.49.78.78,0,0,1-.53.62l-4.47,1.32,4.22,1.87a.77.77,0,0,1,.32.3.78.78,0,0,1,.1.39.72.72,0,0,1-.14.46.67.67,0,0,1-.4.28l-7.08,1.93a1,1,0,0,1-.31,0,.77.77,0,0,1-.53-.25.71.71,0,0,1-.18-.56.67.67,0,0,1,.53-.66l5.53-1.47-3.85-1.83a.7.7,0,0,1-.42-.74.65.65,0,0,1,.53-.62l4-1.24L222.49,261a.71.71,0,0,1-.42-.77A.72.72,0,0,1,222.33,259.76Z" transform="translate(-77 -34)"/><path d="M226.59,245.7a2.78,2.78,0,0,1,1.86-.42,2.94,2.94,0,0,1,2.45,1.23,4.14,4.14,0,0,1,.56,2.57l-.32,4.1a.77.77,0,0,1-.83.71l-9.63-.76a.77.77,0,0,1-.71-.83l.32-4.1a3.1,3.1,0,0,1,.89-2.15,2.73,2.73,0,0,1,2.13-.59,2.56,2.56,0,0,1,1.33.47,2.35,2.35,0,0,1,.83,1.14A3.17,3.17,0,0,1,226.59,245.7Zm-4.34,1.73a1.58,1.58,0,0,0-.48,1.11l-.24,3,3.11.25.24-3a1.58,1.58,0,0,0-.34-1.12,1.79,1.79,0,0,0-2.29-.21Zm7.39.11a1.71,1.71,0,0,0-1.32-.63q-1.77-.14-1.93,1.87l-.25,3.14,3.59.28L230,249A2.08,2.08,0,0,0,229.64,247.54Z" transform="translate(-77 -34)"/><path d="M231.76,242.33a.74.74,0,0,1,.18.56.72.72,0,0,1-.27.52.76.76,0,0,1-.56.17l-10.27-.81a.76.76,0,0,1-.71-.83.72.72,0,0,1,.27-.52.76.76,0,0,1,.56-.17l10.27.81A.74.74,0,0,1,231.76,242.33Z" transform="translate(-77 -34)"/><path d="M224.46,232.59a.63.63,0,0,1,.49-.17,1.11,1.11,0,0,1,.39.14l6.65,3.57a.85.85,0,0,1,.31.3.75.75,0,0,1,.11.39.73.73,0,0,1-.13.46.81.81,0,0,1-.41.3l-7.13,2.49a1.34,1.34,0,0,1-.41,0,.64.64,0,0,1-.45-.24.73.73,0,0,1-.17-.56.79.79,0,0,1,.15-.42.81.81,0,0,1,.38-.27l5.79-2-5.41-2.85a.73.73,0,0,1-.42-.72A.71.71,0,0,1,224.46,232.59Z" transform="translate(-77 -34)"/><path d="M221.83,223.22a.75.75,0,0,1,.57-.17l10.27.81a.75.75,0,0,1,.52.26.73.73,0,0,1,.18.57.72.72,0,0,1-.26.53.77.77,0,0,1-.57.16l-.45,0a3.23,3.23,0,0,1,.88,1.2,3.19,3.19,0,0,1,.28,1.59,3.58,3.58,0,0,1-.71,1.92,3.9,3.9,0,0,1-1.66,1.26,4.86,4.86,0,0,1-2.28.33,4.92,4.92,0,0,1-2.2-.68,3.86,3.86,0,0,1-1.45-1.5A3.63,3.63,0,0,1,225,226a3.33,3.33,0,0,1,1-1.09l-3.75-.3a.76.76,0,0,1-.53-.25.72.72,0,0,1-.17-.56A.74.74,0,0,1,221.83,223.22Zm9.77,3.26a2.59,2.59,0,0,0-1-1,3.66,3.66,0,0,0-3-.24,2.57,2.57,0,0,0-1.13.83,2.52,2.52,0,0,0-.21,2.66,2.58,2.58,0,0,0,1,1,3.67,3.67,0,0,0,3,.24,2.59,2.59,0,0,0,1.13-.83,2.52,2.52,0,0,0,.21-2.66Z" transform="translate(-77 -34)"/><path d="M394.38,396.67a.73.73,0,0,1,.56-.2l9.64.44a.82.82,0,0,1,.55.26.78.78,0,0,1,.2.59.76.76,0,0,1-.25.54.75.75,0,0,1-.57.21l-4.14-.19-.26,5.67,4.14.19a.73.73,0,0,1,.55.27.79.79,0,0,1,.2.57.76.76,0,0,1-.25.56.78.78,0,0,1-.57.19l-9.64-.44a.74.74,0,0,1-.53-.25.78.78,0,0,1-.2-.59.77.77,0,0,1,.25-.54.72.72,0,0,1,.55-.21l4,.19.26-5.67-4-.19a.71.71,0,0,1-.53-.27.84.84,0,0,1,0-1.13Z" transform="translate(-77 -34)"/><path d="M397.64,387.34a.76.76,0,0,1,.55-.19l4.25.2a3.51,3.51,0,1,1-.32,7l-4.25-.2a.75.75,0,0,1-.53-.24.71.71,0,0,1-.2-.54.73.73,0,0,1,.25-.54.76.76,0,0,1,.55-.19l4.25.2q2.09.1,2.19-1.87a2,2,0,0,0-.46-1.51,2.16,2.16,0,0,0-1.54-.58l-4.25-.2a.76.76,0,0,1-.53-.24.71.71,0,0,1-.2-.55A.73.73,0,0,1,397.64,387.34Z" transform="translate(-77 -34)"/><path d="M399.12,382.65l4.76.22c.53,0,.81-.2.83-.68a1.14,1.14,0,0,0,0-.31,1.19,1.19,0,0,1,0-.31.44.44,0,0,1,.19-.34.67.67,0,0,1,.45-.12.69.69,0,0,1,.56.41,1.59,1.59,0,0,1,.2.87,3.9,3.9,0,0,1-.16,1,1.43,1.43,0,0,1-.6.76,2.29,2.29,0,0,1-1.4.28l-4.83-.22,0,.93a.68.68,0,0,1-.73.67.66.66,0,0,1-.49-.22.7.7,0,0,1-.17-.51l0-.93-1.34-.06a.76.76,0,0,1-.53-.24.73.73,0,0,1-.2-.56.71.71,0,0,1,.25-.52.75.75,0,0,1,.55-.19l1.34.06.06-1.33a.68.68,0,0,1,.74-.67.66.66,0,0,1,.49.22.69.69,0,0,1,.17.51Z" transform="translate(-77 -34)"/><path d="M398.28,373.12q.44-.82,1.06-.79a.75.75,0,0,1,.48.2.55.55,0,0,1,.19.46.72.72,0,0,1-.08.32,3.27,3.27,0,0,1-.22.32,1.75,1.75,0,0,0-.24.29,2.1,2.1,0,0,0-.18.54,3.58,3.58,0,0,0-.09.64,2.81,2.81,0,0,0,.32,1.49,2.61,2.61,0,0,0,1,1A3.23,3.23,0,0,0,402,378a3.27,3.27,0,0,0,1.53-.27,2.6,2.6,0,0,0,1.1-.92,2.65,2.65,0,0,0,.45-1.4,3,3,0,0,0-.19-1.35,3.28,3.28,0,0,0-.19-.31,1.79,1.79,0,0,1-.18-.29.62.62,0,0,1,0-.3.65.65,0,0,1,.22-.49.74.74,0,0,1,.53-.16.89.89,0,0,1,.64.45,3.41,3.41,0,0,1,.48,1.16,5.46,5.46,0,0,1,.14,1.54,4,4,0,0,1-.67,2.12,3.8,3.8,0,0,1-1.63,1.36,4.91,4.91,0,0,1-2.25.4,4.71,4.71,0,0,1-2.21-.63,3.93,3.93,0,0,1-1.5-1.54,4.11,4.11,0,0,1-.47-2.18A4.88,4.88,0,0,1,398.28,373.12Z" transform="translate(-77 -34)"/><path d="M401.84,363.81l4.27.2a.76.76,0,0,1,.53.24.73.73,0,0,1,.2.56.71.71,0,0,1-.25.52.75.75,0,0,1-.55.19l-4.27-.2q-2.08-.1-2.16,1.66a2.16,2.16,0,0,0,.53,1.59,2,2,0,0,0,1.45.69l4.27.2a.76.76,0,0,1,.53.24.8.8,0,0,1,0,1.09.77.77,0,0,1-.56.18l-10.29-.47a.75.75,0,0,1-.53-.24.71.71,0,0,1-.2-.54.73.73,0,0,1,.25-.54.76.76,0,0,1,.55-.19l4,.19a3.42,3.42,0,0,1-1-1.17,2.91,2.91,0,0,1-.37-1.56Q398.36,363.65,401.84,363.81Z" transform="translate(-77 -34)"/><path d="M397.3,361.32a.66.66,0,0,1-.54.18h-.26a.63.63,0,0,1-.53-.24,1.11,1.11,0,0,1-.13-.67,1,1,0,0,1,.2-.64.66.66,0,0,1,.54-.17h.26a.64.64,0,0,1,.53.23,1.08,1.08,0,0,1,.13.66A1,1,0,0,1,397.3,361.32Zm9.51-.78a.73.73,0,0,1,.2.56.71.71,0,0,1-.25.52.75.75,0,0,1-.55.19l-6.92-.32a.76.76,0,0,1-.53-.24.72.72,0,0,1-.2-.55.73.73,0,0,1,.25-.54.76.76,0,0,1,.55-.19l6.92.32A.76.76,0,0,1,406.82,360.54Z" transform="translate(-77 -34)"/><path d="M402.36,350.76l4.35.2a.76.76,0,0,1,.53.24.73.73,0,0,1,.2.56.71.71,0,0,1-.25.53.76.76,0,0,1-.55.19l-4.33-.2a2.4,2.4,0,0,0-1.52.36,1.67,1.67,0,0,0-.62,1.38,2.41,2.41,0,0,0,.23,1.17,2.14,2.14,0,0,0,.71.85,1.9,1.9,0,0,0,1,.34l4.33.2a.75.75,0,0,1,.53.24.73.73,0,0,1,.2.56.72.72,0,0,1-.24.53.76.76,0,0,1-.56.18l-6.84-.32a.76.76,0,0,1-.53-.24.71.71,0,0,1-.2-.54.73.73,0,0,1,.25-.54.75.75,0,0,1,.55-.19l.56,0a3.45,3.45,0,0,1-1-1.21,3.07,3.07,0,0,1-.37-1.61Q398.91,350.61,402.36,350.76Z" transform="translate(-77 -34)"/><path d="M405.81,349.27a.65.65,0,0,1-.53-.36.63.63,0,0,1-.1-.37.73.73,0,0,1,.26-.52,3.41,3.41,0,0,0,.86-1,3,3,0,0,0,.33-1.31,2.23,2.23,0,0,0-.23-1.08.91.91,0,0,0-.83-.5.92.92,0,0,0-.85.43,5.36,5.36,0,0,0-.59,1.36,10.13,10.13,0,0,1-.57,1.46,2.68,2.68,0,0,1-.81,1,2.24,2.24,0,0,1-2.58-.12,2.7,2.7,0,0,1-.8-1.12,3.6,3.6,0,0,1-.24-1.49,4.33,4.33,0,0,1,.36-1.51,2.88,2.88,0,0,1,.94-1.2.71.71,0,0,1,.47-.17.69.69,0,0,1,.48.28.57.57,0,0,1,.13.41.6.6,0,0,1-.21.46,2.26,2.26,0,0,0-.63.79,2.74,2.74,0,0,0-.26,1.07,2,2,0,0,0,.2,1,.89.89,0,0,0,.82.46.93.93,0,0,0,.85-.45,6.21,6.21,0,0,0,.59-1.42,9.09,9.09,0,0,1,.54-1.38,2.47,2.47,0,0,1,.8-.91,2.12,2.12,0,0,1,1.34-.32,2.05,2.05,0,0,1,1.28.49,2.79,2.79,0,0,1,.8,1.17,3.76,3.76,0,0,1,.23,1.49,4.85,4.85,0,0,1-.44,1.85,3.48,3.48,0,0,1-1.18,1.4A.81.81,0,0,1,405.81,349.27Z" transform="translate(-77 -34)"/><path d="M406.32,333.65a4.07,4.07,0,0,1,1.48,1.6,4.36,4.36,0,0,1-.2,4.27A4.07,4.07,0,0,1,406,341a4.49,4.49,0,0,1-2.26.46,4.56,4.56,0,0,1-2.23-.66,4,4,0,0,1-1.5-1.6,4.35,4.35,0,0,1,.2-4.27,4,4,0,0,1,1.64-1.46,4.56,4.56,0,0,1,2.28-.46A4.48,4.48,0,0,1,406.32,333.65Zm-3.84,1.14a2.66,2.66,0,0,0-1.1.93,2.67,2.67,0,0,0-.13,2.73,2.68,2.68,0,0,0,1,1,3.26,3.26,0,0,0,1.53.43,3.17,3.17,0,0,0,1.54-.29,2.67,2.67,0,0,0,1.09-.93,2.68,2.68,0,0,0,.13-2.73,2.69,2.69,0,0,0-1-1,3.18,3.18,0,0,0-1.5-.43A3.25,3.25,0,0,0,402.48,334.79Z" transform="translate(-77 -34)"/><path d="M403.59,324l4.35.2a.75.75,0,0,1,.53.24.73.73,0,0,1,.2.56.71.71,0,0,1-.25.53.76.76,0,0,1-.55.19l-4.33-.2a2.4,2.4,0,0,0-1.52.36,1.67,1.67,0,0,0-.62,1.38,2.41,2.41,0,0,0,.23,1.17,2.14,2.14,0,0,0,.71.85,1.91,1.91,0,0,0,1,.34l4.33.2a.76.76,0,0,1,.53.24.8.8,0,0,1,0,1.1.77.77,0,0,1-.56.18l-6.84-.31a.76.76,0,0,1-.53-.24.72.72,0,0,1-.2-.55.74.74,0,0,1,.25-.54.76.76,0,0,1,.55-.19l.56,0a3.44,3.44,0,0,1-1-1.21,3.07,3.07,0,0,1-.37-1.61Q400.14,323.88,403.59,324Z" transform="translate(-77 -34)"/><path d="M408.92,316.05a5.28,5.28,0,0,1-1.14,1.66.85.85,0,0,1-.67.3.73.73,0,0,1-.51-.25.71.71,0,0,1-.21-.54.66.66,0,0,1,.2-.46,4.46,4.46,0,0,0,.93-1.28,4,4,0,0,0,.35-1.53,3,3,0,0,0-.39-1.72,1.37,1.37,0,0,0-1.13-.75,1.51,1.51,0,0,0-1.32.64,6.24,6.24,0,0,0-.85,2,5.52,5.52,0,0,1-1.22,2.48,2.67,2.67,0,0,1-2.17.79,2.82,2.82,0,0,1-1.63-.57,3.17,3.17,0,0,1-1-1.42,4.91,4.91,0,0,1-.29-2,5.43,5.43,0,0,1,.41-1.86,4,4,0,0,1,.91-1.38.92.92,0,0,1,.71-.34.72.72,0,0,1,.5.24.69.69,0,0,1,.2.53.54.54,0,0,1-.15.36,3.32,3.32,0,0,0-.76,1.12,3.85,3.85,0,0,0-.35,1.39,3,3,0,0,0,.36,1.72,1.42,1.42,0,0,0,2.36.11,5.94,5.94,0,0,0,.79-1.85,10,10,0,0,1,.73-2,2.87,2.87,0,0,1,1.08-1.18,3.06,3.06,0,0,1,1.73-.35,2.74,2.74,0,0,1,1.62.6A3.43,3.43,0,0,1,409,312a4.79,4.79,0,0,1,.31,2A6,6,0,0,1,408.92,316.05Z" transform="translate(-77 -34)"/><path d="M402.66,305.69l4.76.22q.8,0,.83-.68a1.14,1.14,0,0,0,0-.31,1.15,1.15,0,0,1,0-.31.44.44,0,0,1,.19-.34.67.67,0,0,1,1,.29,1.59,1.59,0,0,1,.2.87,3.85,3.85,0,0,1-.16,1,1.44,1.44,0,0,1-.6.76,2.29,2.29,0,0,1-1.4.28l-4.83-.22,0,.93a.68.68,0,0,1-.73.67.65.65,0,0,1-.49-.22.7.7,0,0,1-.17-.51l0-.93-1.34-.06a.75.75,0,0,1-.53-.24.73.73,0,0,1-.2-.56.71.71,0,0,1,.25-.52.75.75,0,0,1,.55-.19l1.34.06.06-1.33a.68.68,0,0,1,.22-.49.69.69,0,0,1,.51-.18.66.66,0,0,1,.49.22.7.7,0,0,1,.17.51Z" transform="translate(-77 -34)"/><path d="M443.5,451.77a5.27,5.27,0,0,1-1.58-1.25.85.85,0,0,1-.26-.69.73.73,0,0,1,.28-.49.71.71,0,0,1,.55-.17.66.66,0,0,1,.44.23,4.45,4.45,0,0,0,1.21,1,4,4,0,0,0,1.5.46,3,3,0,0,0,1.75-.27,1.37,1.37,0,0,0,.83-1.08,1.5,1.5,0,0,0-.54-1.36,6.25,6.25,0,0,0-2-1,5.51,5.51,0,0,1-2.39-1.39,2.66,2.66,0,0,1-.64-2.22,2.82,2.82,0,0,1,.68-1.59,3.18,3.18,0,0,1,1.49-.93,4.89,4.89,0,0,1,2-.15,5.44,5.44,0,0,1,1.82.53,4,4,0,0,1,1.32,1,.91.91,0,0,1,.29.73.71.71,0,0,1-.27.48.7.7,0,0,1-.54.16.53.53,0,0,1-.35-.17,3.33,3.33,0,0,0-1.06-.83,3.84,3.84,0,0,0-1.37-.45,2.94,2.94,0,0,0-1.74.24,1.42,1.42,0,0,0-.27,2.34,6,6,0,0,0,1.79.92,10.05,10.05,0,0,1,2,.87,2.88,2.88,0,0,1,1.1,1.16,3.07,3.07,0,0,1,.23,1.75,2.75,2.75,0,0,1-.71,1.58,3.43,3.43,0,0,1-1.54.95,4.78,4.78,0,0,1-2,.17A6,6,0,0,1,443.5,451.77Z" transform="translate(-77 -34)"/><path d="M457.88,445.37q.79.5.72,1.11a.75.75,0,0,1-.23.46.55.55,0,0,1-.47.16.71.71,0,0,1-.32-.1l-.3-.24a1.64,1.64,0,0,0-.28-.26,2.08,2.08,0,0,0-.52-.22,3.56,3.56,0,0,0-.63-.14,2.8,2.8,0,0,0-1.51.21,2.61,2.61,0,0,0-1.11.94,3.23,3.23,0,0,0-.52,1.46,3.28,3.28,0,0,0,.17,1.55,2.61,2.61,0,0,0,.84,1.16,2.65,2.65,0,0,0,1.37.55,3,3,0,0,0,1.36-.1l.33-.17a2,2,0,0,1,.3-.16.63.63,0,0,1,.3,0,.65.65,0,0,1,.48.26.74.74,0,0,1,.12.54.89.89,0,0,1-.5.61,3.42,3.42,0,0,1-1.19.4,5.39,5.39,0,0,1-1.54,0,4,4,0,0,1-2.06-.81,3.8,3.8,0,0,1-1.24-1.72,4.89,4.89,0,0,1-.24-2.28,4.69,4.69,0,0,1,.78-2.16,3.94,3.94,0,0,1,1.64-1.39,4.12,4.12,0,0,1,2.21-.32A4.89,4.89,0,0,1,457.88,445.37Z" transform="translate(-77 -34)"/><path d="M466.93,450.6a.77.77,0,0,1-.55.14l-5.59-.65a2.78,2.78,0,0,0,.67,2,2.72,2.72,0,0,0,1.8.92,3,3,0,0,0,1.27-.08,3.14,3.14,0,0,0,.91-.47.91.91,0,0,1,.48-.09.61.61,0,0,1,.43.24.63.63,0,0,1,.13.47.79.79,0,0,1-.39.57,3.76,3.76,0,0,1-1.31.64,4,4,0,0,1-1.59.14,4.63,4.63,0,0,1-2.2-.8,3.79,3.79,0,0,1-1.34-1.68,4.5,4.5,0,0,1-.28-2.25,4.87,4.87,0,0,1,.82-2.28A4,4,0,0,1,461.8,446a3.76,3.76,0,0,1,3.84.43A4,4,0,0,1,466.9,448a4.17,4.17,0,0,1,.32,2.13A.68.68,0,0,1,466.93,450.6ZM462,447.38a2.47,2.47,0,0,0-1,1.45l4.69.54v-.13a2,2,0,0,0-.59-1.47,2.41,2.41,0,0,0-1.47-.72A2.47,2.47,0,0,0,462,447.38Z" transform="translate(-77 -34)"/><path d="M476.14,450.57l-.5,4.32a.76.76,0,0,1-.28.52.73.73,0,0,1-.57.16.71.71,0,0,1-.51-.28.75.75,0,0,1-.15-.56l.5-4.31a2.4,2.4,0,0,0-.26-1.54,1.66,1.66,0,0,0-1.33-.72,2.4,2.4,0,0,0-1.18.14,2.13,2.13,0,0,0-.9.65,1.9,1.9,0,0,0-.41,1l-.5,4.31a.75.75,0,0,1-.28.51.73.73,0,0,1-.57.16.72.72,0,0,1-.51-.28.76.76,0,0,1-.14-.57l.79-6.8a.75.75,0,0,1,.28-.52.71.71,0,0,1,.56-.16.73.73,0,0,1,.52.29.75.75,0,0,1,.15.57l-.06.56a3.45,3.45,0,0,1,1.28-.94,3.07,3.07,0,0,1,1.63-.25Q476.54,447.13,476.14,450.57Z" transform="translate(-77 -34)"/><path d="M479.05,455.83a.73.73,0,0,1-.57.16.71.71,0,0,1-.51-.28.76.76,0,0,1-.15-.57l.8-6.88a.76.76,0,0,1,.28-.52.72.72,0,0,1,.56-.16.73.73,0,0,1,.52.29.76.76,0,0,1,.15.57l-.8,6.88A.76.76,0,0,1,479.05,455.83Zm-.12-9.54a.66.66,0,0,1-.14-.55l0-.25a.64.64,0,0,1,.28-.52,1.13,1.13,0,0,1,.68-.08,1,1,0,0,1,.62.24.66.66,0,0,1,.14.55l0,.25a.65.65,0,0,1-.27.52,1.09,1.09,0,0,1-.67.08A1,1,0,0,1,478.93,446.29Z" transform="translate(-77 -34)"/><path d="M488.07,448.87q.79.49.72,1.11a.76.76,0,0,1-.23.46.55.55,0,0,1-.47.16.72.72,0,0,1-.32-.1l-.3-.24a1.72,1.72,0,0,0-.28-.26,2.11,2.11,0,0,0-.52-.22,3.64,3.64,0,0,0-.63-.14,2.81,2.81,0,0,0-1.51.21,2.61,2.61,0,0,0-1.11.94,3.23,3.23,0,0,0-.52,1.46,3.28,3.28,0,0,0,.17,1.55,2.6,2.6,0,0,0,.84,1.16,2.65,2.65,0,0,0,1.37.54,3,3,0,0,0,1.37-.1l.33-.17a2,2,0,0,1,.3-.16.64.64,0,0,1,.3,0,.65.65,0,0,1,.48.26.74.74,0,0,1,.12.54.89.89,0,0,1-.5.61,3.42,3.42,0,0,1-1.19.4,5.44,5.44,0,0,1-1.54,0,4,4,0,0,1-2.06-.81,3.81,3.81,0,0,1-1.24-1.72,4.89,4.89,0,0,1-.24-2.28,4.71,4.71,0,0,1,.78-2.16,3.94,3.94,0,0,1,1.64-1.39,4.1,4.1,0,0,1,2.21-.32A4.88,4.88,0,0,1,488.07,448.87Z" transform="translate(-77 -34)"/><path d="M504,447.89a.73.73,0,0,1,.16.57L503.08,458a.83.83,0,0,1-.3.53.78.78,0,0,1-.6.16.76.76,0,0,1-.52-.29.75.75,0,0,1-.17-.58l.48-4.12-5.64-.65-.48,4.12a.73.73,0,0,1-.3.53.8.8,0,0,1-.58.16.75.75,0,0,1-.54-.29.78.78,0,0,1-.15-.58l1.11-9.58a.74.74,0,0,1,.28-.51.78.78,0,0,1,.6-.16.77.77,0,0,1,.52.29.73.73,0,0,1,.17.57l-.46,4,5.64.65.46-4a.71.71,0,0,1,.3-.51.84.84,0,0,1,1.13.12Z" transform="translate(-77 -34)"/><path d="M516.61,452.1a.75.75,0,0,1,.15.57,1,1,0,0,1-.1.3l-3.23,6.58a.72.72,0,0,1-.36.35.75.75,0,0,1-.49,0,.78.78,0,0,1-.6-.55l-1.15-4.51-2,4.15a.77.77,0,0,1-.31.31.78.78,0,0,1-.4.09.73.73,0,0,1-.46-.16.68.68,0,0,1-.27-.41l-1.67-7.15a1,1,0,0,1,0-.31.77.77,0,0,1,.27-.52.71.71,0,0,1,.57-.16.67.67,0,0,1,.64.56l1.27,5.58,2-3.78a.7.7,0,0,1,.75-.4.65.65,0,0,1,.6.55l1.09,4.07,2.47-5.08a.78.78,0,0,1,1.28-.12Z" transform="translate(-77 -34)"/><path d="M525.21,453.11a.76.76,0,0,1,.15.57l-.79,6.87a3.82,3.82,0,0,1-1.44,2.84,4.19,4.19,0,0,1-3,.65,6.25,6.25,0,0,1-1.15-.25,3.46,3.46,0,0,1-.9-.41.83.83,0,0,1-.5-.8.87.87,0,0,1,.06-.2.91.91,0,0,1,.32-.38.62.62,0,0,1,.41-.1.6.6,0,0,1,.23.08,9.18,9.18,0,0,0,.83.45,2.8,2.8,0,0,0,.88.23,2.22,2.22,0,0,0,2.76-2.24l0-.32a2.91,2.91,0,0,1-1.21.76,3.62,3.62,0,0,1-1.59.14,2.61,2.61,0,0,1-2-1.08,3.25,3.25,0,0,1-.48-2.29l.55-4.75a.77.77,0,0,1,.27-.52.79.79,0,0,1,1.09.13.76.76,0,0,1,.15.57l-.5,4.36a2.25,2.25,0,0,0,.28,1.6,1.83,1.83,0,0,0,1.34.66,2.07,2.07,0,0,0,1.56-.4,2,2,0,0,0,.76-1.41l.5-4.36a.77.77,0,0,1,.27-.52.72.72,0,0,1,.57-.15A.73.73,0,0,1,525.21,453.11Z" transform="translate(-77 -34)"/><path d="M537.57,452a3.8,3.8,0,0,1,1.09,1.69,4.91,4.91,0,0,1,.2,2.1,8.67,8.67,0,0,1-.79,2.61,7.9,7.9,0,0,1-1.87,2.51,6,6,0,0,1-3,1.47.9.9,0,0,1-.29,0,.86.86,0,0,1-.53-.25.66.66,0,0,1-.17-.58.72.72,0,0,1,.23-.46.92.92,0,0,1,.51-.23,5.72,5.72,0,0,0,2.24-1.09,5.31,5.31,0,0,0,1.61-2,3,3,0,0,1-2.25.64,3.05,3.05,0,0,1-1.6-.69,3.68,3.68,0,0,1-1.1-1.5,3.73,3.73,0,0,1-.26-1.87,3.55,3.55,0,0,1,.69-1.75,3.7,3.7,0,0,1,1.46-1.18,3.54,3.54,0,0,1,1.88-.28A3.37,3.37,0,0,1,537.57,452Zm-1,4.59a2.29,2.29,0,0,0,.8-1.55,2.22,2.22,0,0,0-.42-1.64,2.05,2.05,0,0,0-1.48-.82,2,2,0,0,0-1.57.46,2.23,2.23,0,0,0-.79,1.52,2.34,2.34,0,0,0,.39,1.67,1.91,1.91,0,0,0,1.41.82A2.08,2.08,0,0,0,536.6,456.55Z" transform="translate(-77 -34)"/><path d="M547,459.22a2.61,2.61,0,0,1,.28,1.51,2.94,2.94,0,0,1-.66,1.56,3.44,3.44,0,0,1-1.44,1,4,4,0,0,1-3.62-.42,3.47,3.47,0,0,1-1.17-1.33,2.94,2.94,0,0,1-.29-1.67,2.57,2.57,0,0,1,.63-1.45,3.68,3.68,0,0,1,1.29-.92,2.81,2.81,0,0,1-.86-1,2.42,2.42,0,0,1-.22-1.4,3,3,0,0,1,.63-1.52,3.21,3.21,0,0,1,1.33-1,3.62,3.62,0,0,1,3.35.39,3.15,3.15,0,0,1,1.07,1.27,3,3,0,0,1,.25,1.62,2.35,2.35,0,0,1-.56,1.33,2.86,2.86,0,0,1-1.09.77A3.5,3.5,0,0,1,547,459.22Zm-2,2.57a1.7,1.7,0,0,0,.75-1.25,1.72,1.72,0,0,0-.46-1.41,2.16,2.16,0,0,0-1.41-.71,2.13,2.13,0,0,0-1.53.37,1.73,1.73,0,0,0-.76,1.26,1.7,1.7,0,0,0,.44,1.39,2.15,2.15,0,0,0,1.42.7A2.19,2.19,0,0,0,545,461.8Zm-1.94-7.68a1.69,1.69,0,0,0-.65,1.2,1.66,1.66,0,0,0,.38,1.31,1.8,1.8,0,0,0,1.23.65,1.78,1.78,0,0,0,1.33-.35,1.66,1.66,0,0,0,.67-1.19,1.68,1.68,0,0,0-.36-1.31,1.78,1.78,0,0,0-1.23-.64A1.81,1.81,0,0,0,543.09,454.11Z" transform="translate(-77 -34)"/><path d="M316,266.9a.72.72,0,0,1,.19.55.7.7,0,0,1-.24.52.76.76,0,0,1-.56.18l-5.4-.27a.74.74,0,0,1-.54-.25.76.76,0,0,1-.19-.55l.48-9.65a.74.74,0,0,1,.25-.53.78.78,0,0,1,.59-.2.77.77,0,0,1,.54.25.73.73,0,0,1,.2.55l-.44,8.93,4.59.23A.77.77,0,0,1,316,266.9Z" transform="translate(-77 -34)"/><path d="M325,260.46a.76.76,0,0,1,.19.55l-.21,4.25a3.51,3.51,0,1,1-7-.34l.21-4.25a.75.75,0,0,1,.24-.53.71.71,0,0,1,.55-.2.73.73,0,0,1,.54.25.76.76,0,0,1,.19.55l-.21,4.25q-.1,2.09,1.86,2.19a2,2,0,0,0,1.51-.45,2.17,2.17,0,0,0,.59-1.54l.21-4.25a.75.75,0,0,1,.24-.53.72.72,0,0,1,.55-.2A.73.73,0,0,1,325,260.46Z" transform="translate(-77 -34)"/><path d="M334.15,268.31a.68.68,0,0,1-.27.52.78.78,0,0,1-.53.19.68.68,0,0,1-.55-.28l-3-3.5-1,.82-.1,2a.75.75,0,0,1-.24.53.72.72,0,0,1-.55.2.74.74,0,0,1-.54-.25.76.76,0,0,1-.19-.55l.51-10.29a.76.76,0,0,1,.24-.53.73.73,0,0,1,.56-.2.71.71,0,0,1,.52.25.76.76,0,0,1,.19.55l-.32,6.49,4.09-3.4a.84.84,0,0,1,.57-.21.68.68,0,0,1,.48.26.7.7,0,0,1,.2.5.75.75,0,0,1-.33.56L331,264.26l2.9,3.47A.81.81,0,0,1,334.15,268.31Z" transform="translate(-77 -34)"/><path d="M342.86,265.48a.77.77,0,0,1-.54.17l-5.62-.28a2.78,2.78,0,0,0,.79,1.91,2.72,2.72,0,0,0,1.86.8,3,3,0,0,0,1.26-.16,3.11,3.11,0,0,0,.88-.53.9.9,0,0,1,.47-.12.61.61,0,0,1,.45.21.63.63,0,0,1,.16.46.79.79,0,0,1-.35.59,3.77,3.77,0,0,1-1.27.72,4,4,0,0,1-1.58.24,4.64,4.64,0,0,1-2.25-.66,3.79,3.79,0,0,1-1.44-1.59,4.51,4.51,0,0,1-.43-2.23,4.87,4.87,0,0,1,.67-2.33,4,4,0,0,1,1.53-1.49,3.75,3.75,0,0,1,3.86.17,4,4,0,0,1,1.37,1.53,4.15,4.15,0,0,1,.46,2.1A.69.69,0,0,1,342.86,265.48Zm-5.1-2.89a2.48,2.48,0,0,0-.94,1.52l4.71.23v-.13a2,2,0,0,0-.69-1.43,2.41,2.41,0,0,0-1.52-.62A2.48,2.48,0,0,0,337.77,262.58Z" transform="translate(-77 -34)"/><path d="M358,269.56a.72.72,0,0,1-.75.7.67.67,0,0,1-.4-.16,1,1,0,0,1-.28-.39l-.88-2.4-4.94-.24-1.09,2.32a.75.75,0,0,1-1.2.26.65.65,0,0,1-.15-.49,1.86,1.86,0,0,1,0-.25l4.56-9.68a.9.9,0,0,1,.33-.38.65.65,0,0,1,.46-.08.76.76,0,0,1,.43.15.69.69,0,0,1,.25.38l3.58,9.95A1,1,0,0,1,358,269.56Zm-6.57-3.91,3.72.18-1.65-4.57Z" transform="translate(-77 -34)"/><path d="M366.21,262.38a.63.63,0,0,1,.18.48,1.09,1.09,0,0,1-.13.39L362.89,270a.84.84,0,0,1-.29.32.73.73,0,0,1-.39.13.72.72,0,0,1-.47-.12.8.8,0,0,1-.31-.4l-2.7-7.05a1.33,1.33,0,0,1-.06-.4.64.64,0,0,1,.23-.45.74.74,0,0,1,.55-.18.8.8,0,0,1,.43.14.82.82,0,0,1,.29.38l2.14,5.73L365,262.6a.73.73,0,0,1,.71-.45A.71.71,0,0,1,366.21,262.38Z" transform="translate(-77 -34)"/><path d="M374.89,267.06a.77.77,0,0,1-.54.17l-5.62-.28a2.78,2.78,0,0,0,.79,1.91,2.72,2.72,0,0,0,1.86.8,3,3,0,0,0,1.26-.16,3.14,3.14,0,0,0,.88-.53.9.9,0,0,1,.47-.12.6.6,0,0,1,.45.21.63.63,0,0,1,.16.46.79.79,0,0,1-.35.59,3.78,3.78,0,0,1-1.27.72,4,4,0,0,1-1.58.24,4.63,4.63,0,0,1-2.25-.66,3.79,3.79,0,0,1-1.44-1.59,4.5,4.5,0,0,1-.43-2.23,4.88,4.88,0,0,1,.67-2.33,4,4,0,0,1,1.53-1.49,3.75,3.75,0,0,1,3.86.17,4,4,0,0,1,1.37,1.53,4.16,4.16,0,0,1,.46,2.1A.68.68,0,0,1,374.89,267.06Zm-5.1-2.89a2.48,2.48,0,0,0-.94,1.52l4.71.23v-.13a2,2,0,0,0-.69-1.43,2.41,2.41,0,0,0-1.52-.62A2.48,2.48,0,0,0,369.79,264.16Z" transform="translate(-77 -34)"/></svg>