<svg id="Layer_1" data-name="Layer 1" xmlns="http://www.w3.org/2000/svg" width="358.48" height="87.63" viewBox="0 0 358.48 87.63"><defs><style>.cls-1{fill:#7a2e80;}.cls-2{fill:#f7d021;}.cls-3{fill:#c6d635;}.cls-4{fill:#ba83b9;}.cls-5{fill:#87c672;}</style></defs><title>wayfair</title><g id="_58oMGY.tif" data-name="58oMGY.tif"><path class="cls-1" d="M247.65,0a18.54,18.54,0,0,1,4.81.76,10.72,10.72,0,0,1,8.69,10.93c0,1.34-.43,2-1.82,2s-3.07,0-4.6,0A1.55,1.55,0,0,1,252.94,12a9.18,9.18,0,0,0-.37-2.16,4,4,0,0,0-3-3.1,4.62,4.62,0,0,0-4.87,1.53,6.73,6.73,0,0,0-1.51,4.25c-.05,2.2,0,4.4,0,6.6,0,1.22.52,1.64,1.69,1.62,2.67,0,5.33,0,8,0,.65,0,1.34-.14,1.76.62s-.09,1.38-.48,2c-.07.11-.18.2-.24.32-1.76,3.35-4.36,4.83-8.26,4.23-2.22-.34-2.28,0-2.28,2.09q0,14,0,28c0,2,0,2,2,2,2.69,0,3.6-.83,3.47,3.59,0,.27,0,.53,0,.8,0,2.55-.21,2.76-2.69,2.76H229.23c-.86,0-1.82.17-2.25-.84s.26-1.59.82-2.09c3.24-2.93,3.89-6.55,3.74-10.78-.29-7.79-.08-15.59-.08-23.39,0-2.19,0-2-2.25-2.27-3.49-.48-5.18.81-6.62,4.12C215.8,47.52,208.69,63,201.66,78.48c-2.2,4.84-5.62,8.21-11.2,8.78a.46.46,0,0,0-.39.37h-2.4c-.27-.68-.91-.4-1.38-.51a15.84,15.84,0,0,1-7.09-3.9c-1.27-1.17-1.26-1.71-.06-3,.82-.88,1.65-1.74,2.47-2.61a1.61,1.61,0,0,1,2.44-.19c4.74,3.42,8,2.68,10.76-2.5,1.36-2.51,2.5-5.14,3.8-7.69a2.87,2.87,0,0,0,0-2.79q-8.28-17.59-16.45-35.23a1.94,1.94,0,0,0-2.1-1.38c-.66,0-1.33,0-2,0a1.86,1.86,0,0,1-1.92-1.11c-.65-1.31-1.41-2.57-2-3.88s-.2-2.08,1.28-2.09c7.6,0,15.2,0,22.8,0,1.19,0,1.73.54,1.74,1.67s0,2.4,0,3.6c0,1.38-.67,1.9-2,1.85-4.13-.17-3.17.66-2.06,3.21q3.91,9,7.84,17.91c.25.56.28,1.42,1.15,1.45s1-.82,1.2-1.39q4.13-9.51,8.22-19c.74-1.74.72-1.81-1.15-2.13a1.41,1.41,0,0,1-1.39-1.59c0-1.2,0-2.4,0-3.6,0-1.69.25-1.91,2-1.92,5.2,0,10.4,0,15.6,0,2.3,0,2.34,0,2.31-2.37a24.21,24.21,0,0,1,.59-6.55c1.58-6,5.06-10.17,11.45-11.39"/><path class="cls-2" d="M26.64,61.66c-2.57,2.59-5.18,5.15-7.71,7.79a2.52,2.52,0,0,1-2.83.77c-3.57-1-7.15-2-10.76-2.86a2.57,2.57,0,0,1-2.18-2.18c-.72-3-1.56-6-2.39-9C.61,55.55.66,54.82,0,54.42v-2c3.17-2.64,5.88-5.76,8.83-8.62Z"/><path class="cls-3" d="M0,33.61c1.47-3.49,2.09-7.23,3.08-10.86a3.06,3.06,0,0,1,2.57-2.54c3.56-.83,7.08-1.81,10.6-2.8a2.25,2.25,0,0,1,2.51.61c2.6,2.67,5.23,5.31,7.84,8L8.83,43.81c-3-2.84-5.66-6-8.83-8.6Z"/><path class="cls-1" d="M71.32,20.74c2.93,0,5.87,0,8.8,0,1.75,0,1.93.21,2,2,0,1.07-.06,2.14,0,3.2.1,1.37-.46,1.91-1.83,2-2.83.09-2.85.15-2,2.88Q81,39,83.73,47.22a6.22,6.22,0,0,0,.34.94c.47.9,1.09.94,1.58.06a14.42,14.42,0,0,0,.76-1.84c3-7.88,6.13-15.74,9.09-23.65.56-1.49,1.27-2.19,2.89-2a16.47,16.47,0,0,0,3.4,0c1.45-.14,2.14.48,2.61,1.82,2.37,6.71,4.81,13.39,7.23,20.08.61,1.69,1.22,3.38,1.85,5.06.18.48.26,1.08,1,1.13s.81-.59,1-1.07q3.07-9.07,6.11-18.14c.39-1.14.15-1.83-1.21-1.77-.27,0-.53,0-.8,0-2.38,0-2.52-.16-2.52-2.48,0-5.36-.44-4.58,4.55-4.61,4.47,0,8.94,0,13.4,0,1.89,0,2.27.55,1.74,2.33a14.07,14.07,0,0,0-.53,1.5c-.41,2.34-1.45,3.78-4.14,3.28-1.36-.25-1.6.9-1.92,1.84q-4.06,12-8.11,24c-1.3,3.85-2.68,7.67-3.91,11.53a2.32,2.32,0,0,1-2.73,1.95,29.74,29.74,0,0,0-4.6,0c-1.55.12-2.24-.57-2.74-2-2.93-8.27-5.95-16.52-8.93-24.78-.09-.25-.17-.5-.29-.74-.26-.57-.25-1.42-1.17-1.38s-.85.78-1.05,1.3c-1.53,3.9-3,7.81-4.55,11.72-1.8,4.65-3.63,9.29-5.36,14a2.42,2.42,0,0,1-2.82,1.88,17,17,0,0,0-3.4,0c-1.61.16-2.37-.49-2.87-2C74.2,54.72,70.7,44.31,67.23,33.89c-.51-1.52-1.1-3-1.5-4.55a1.76,1.76,0,0,0-2.16-1.51,14,14,0,0,1-1.6,0,1.4,1.4,0,0,1-1.56-1.63c0-1.2.05-2.4,0-3.6-.07-1.39.56-1.9,1.91-1.88C65.32,20.77,68.32,20.74,71.32,20.74Z"/><path class="cls-1" d="M173.33,44.63c0,3.33,0,6.67,0,10a17.51,17.51,0,0,0,.2,2.58c.31,2,1,2.63,3,2.86s2.45,1,1.29,2.65c-.38.55-.76,1.09-1.17,1.62a7.56,7.56,0,0,1-12.51-.41c-1.12-1.6-1.11-1.59-2.71-.36-3.86,3-8.07,4.77-13.09,4.55a12.89,12.89,0,0,1-12.53-14.47c.84-7.71,4.79-11.76,12.88-13.22a54.72,54.72,0,0,1,11.54-.79c1.08,0,1.58-.21,1.48-1.4-.15-1.85.15-3.72-.32-5.57-.82-3.22-2.88-4.91-6.3-5-3.77-.15-6.32,1.43-7.34,4.56s-1,3-4.15,3c-1.2,0-2.4,0-3.6,0-1.47-.06-1.89-.55-1.71-2,.51-4.28,2.32-7.9,6.19-9.94,6.9-3.63,14.11-4.35,21.24-.76A13.26,13.26,0,0,1,173.33,35Q173.33,39.83,173.33,44.63Zm-11.67,6.91c0-1.53,0-3.06,0-4.59,0-.9-.35-1.16-1.18-1.11-1.53.1-3.06.06-4.58.25a13,13,0,0,0-5.64,1.82,6.87,6.87,0,0,0-2.74,7.88c.87,3,3.09,4.59,6.36,4.7a10.33,10.33,0,0,0,6.26-2.21,2.92,2.92,0,0,0,1.53-3A37.7,37.7,0,0,1,161.65,51.54Z"/><path class="cls-1" d="M8.83,43.8h0L26.6,26h0L44.42,43.72C43.7,44.5,43,45.29,42.25,46c-5.11,5.22-10.44,10.24-15.43,15.59l-.18,0Z"/><path class="cls-4" d="M26.82,61.63c5-5.35,10.31-10.36,15.43-15.59.74-.76,1.45-1.55,2.17-2.32h.16l.15,0a49.19,49.19,0,0,0,6.64,6.86,4.37,4.37,0,0,1,1.37,5.26c-1,2.89-1.63,5.88-2.36,8.84a3.17,3.17,0,0,1-2.66,2.75c-3.56.78-7.06,1.83-10.58,2.8a2.15,2.15,0,0,1-2.37-.5C32.16,67,29.3,64.51,26.82,61.63Z"/><path class="cls-5" d="M44.73,43.74l-.15,0h-.16L26.61,26c2.6-2.58,5.22-5.13,7.77-7.75a2.64,2.64,0,0,1,3-.76c3.57,1,7.17,2,10.78,2.87a2.37,2.37,0,0,1,2,1.91c.95,3.73,1.95,7.45,3,11.16a2.47,2.47,0,0,1-.82,2.66C49.75,38.6,47.25,41.18,44.73,43.74Z"/><path class="cls-1" d="M292.17,44.94c0,3.6,0,7.2,0,10.79,0,3.08.68,3.85,3.63,4.35,1.49.26,1.84,1.08,1,2.39-.4.61-.85,1.19-1.3,1.77A7.55,7.55,0,0,1,283,64c-1.19-1.66-1.2-1.66-2.87-.38-3.69,2.82-7.71,4.59-12.5,4.48-8.35-.18-14.13-6.88-12.94-15.19,1-7.25,4.91-11,12.72-12.48a52.39,52.39,0,0,1,11.53-.8c1.25,0,1.65-.35,1.54-1.57-.16-1.72.13-3.45-.25-5.17a6.18,6.18,0,0,0-6.1-5.28c-3.84-.25-6.53,1.35-7.57,4.51s-1,3-4.1,3c-1.2,0-2.4,0-3.6,0-1.57-.06-2-.59-1.78-2.14a13,13,0,0,1,9.15-11.28,24.93,24.93,0,0,1,14.34-.88c7,1.71,11.88,7.44,11.65,14.7C292.08,38.67,292.17,41.81,292.17,44.94Zm-11.74,6.75c0-1.53,0-3.07,0-4.6,0-.8-.18-1.28-1.1-1.24-2.72.13-5.48.07-8.09,1-2.14.76-4,1.94-4.75,4.23a7.16,7.16,0,0,0,1.35,7.48c2,2.25,4.72,2.27,7.41,1.65A9.36,9.36,0,0,0,280,57.35c1-1.06.29-2.56.42-3.86A16.82,16.82,0,0,0,280.43,51.69Z"/><path class="cls-1" d="M341.38,47.75q0,4.9,0,9.8c0,2.45,0,2.45,2.37,2.46H345a1.4,1.4,0,0,1,1.57,1.62c0,1.27,0,2.53,0,3.8a1.5,1.5,0,0,1-1.71,1.72c-6.07,0-12.14,0-18.2,0-1.5,0-2-1.06-1.07-2.32,1-1.41,2.11-2.75,3.24-4.07a3.66,3.66,0,0,0,.89-2.55q0-14.2,0-28.41c0-1.28-.27-1.94-1.74-2s-1.87-1.08-1-2.34,2.08-2.6,3.09-3.92a2,2,0,0,1,1.72-.79c2.6,0,5.2,0,7.8,0,1.28,0,1.85.49,1.8,1.77,0,1.07,0,2.13,0,3.2,0,.49.09.95.64,1.11s.86-.21,1.15-.6.65-.85,1-1.28c3.13-4.29,7.51-5.16,12.43-4.51a2,2,0,0,1,1.92,2.3c-.08,1.73,0,3.47,0,5.2,0,2.13-.42,2.46-2.54,1.88-5.46-1.48-9.8.29-13.35,4.46a4.89,4.89,0,0,0-1.22,3.47C341.44,41.08,341.38,44.42,341.38,47.75Z"/><path class="cls-1" d="M316.91,40.58q0,8.6,0,17.2c0,2.23,0,2.2,2.15,2.26.94,0,2.12-.43,2.69.74s-.59,1.76-1,2.6c-1.7,3.2-4.29,4.23-7.88,3.86a100.38,100.38,0,0,0-10.19-.07c-.81,0-1.66,0-2-.87s.19-1.46.72-1.93c3.41-3,4-6.81,3.83-11.15-.27-7.72-.1-15.46-.05-23.19,0-1.4-.14-2.26-1.89-2.25-1.29,0-1.69-1-.92-2.1,1.08-1.51,2.3-2.93,3.46-4.4a1.64,1.64,0,0,1,1.44-.53c2.6,0,5.2,0,7.8,0,1.67,0,1.91.27,1.92,2C316.92,28.72,316.91,34.65,316.91,40.58Z"/><path class="cls-1" d="M317.54,9.34A6.63,6.63,0,1,1,304.28,9a6.63,6.63,0,1,1,13.26.36Z"/></g></svg>