<svg id="Layer_1" data-name="Layer 1" xmlns="http://www.w3.org/2000/svg" width="412.45" height="188.44" viewBox="0 0 412.45 188.44"><title>ws</title><g id="_08LSly.tif" data-name="08LSly.tif"><path d="M0,1.24H22.14V3.92c-1.59.22-3.19.39-4.77.68-2.12.39-2.47.83-1.93,2.86,1.26,4.8,2.61,9.58,4,14.36,1.92,6.8,3.87,13.6,6,20.45L38.91,2c1.09,0,2.2-.05,3.31,0,.27,0,.61.49.72.82,1.55,4.58,3.06,9.17,4.58,13.76L56,42.32c.09.26.19.52.39,1,.6-2.08,1.14-3.89,1.64-5.72q3.68-13.41,7.33-26.84c.23-.85.32-1.75.47-2.62a2.29,2.29,0,0,0-1.43-2.75,35.51,35.51,0,0,0-4.24-1.22A15.68,15.68,0,0,0,58.41,4V1.32H78v2.6c-.62.16-1.25.3-1.88.47a8.64,8.64,0,0,0-6.26,6.24Q63,33.1,56.08,55.53c-.1.31-.2.62-.32,1-1,0-2,0-3,0-.75,0-.73-.56-.87-1q-3.29-10-6.55-20L38.49,14.62c-.21.56-.36.93-.49,1.31Q31.22,35.78,24.47,55.63a1.09,1.09,0,0,1-1.25.89c-2.49,0-2.49,0-3.16-2.38L7.66,10.06C6.58,6.2,4.26,4.37,0,4Z"/><path d="M322.89,55.78H301V53.17c1.13-.21,2.29-.4,3.44-.64,3.17-.67,4.69-2.29,5-5.5.2-1.93.34-3.88.35-5.82q.05-14.35,0-28.71a12.46,12.46,0,0,0-.64-4c-1-2.83-3.4-3.85-6.13-4.32-.55-.09-1.11-.16-1.73-.26V1.3c.34,0,.66,0,1,0,5.54,0,11.09,0,16.63,0a1.13,1.13,0,0,1,1.27.88q7.41,19.51,14.86,39c.1.27.23.53.44,1l2.58-6.63c3.57-9.16,7.17-18.32,10.68-27.5.82-2.14,1.36-4.39,2.06-6.68h17.56v2.6c-1.35.24-2.68.44-4,.71-2.48.51-3.39,1.65-3.41,4.19,0,1.62,0,3.23,0,4.85q0,17.08,0,34.15c0,2.73,1.06,4.1,3.7,4.69,1.22.27,2.46.45,3.75.67v2.58h-24V53.18c1.35-.15,2.72-.29,4.07-.46,3-.36,4.39-2,4.39-4.93q0-19.06,0-38.11V8.61l-.3-.16a5.16,5.16,0,0,0-.58.87q-3.22,8-6.4,15.94Q339.78,39.7,334,54.15c-.32.81-.83.72-1.45.79s-.95-.25-1.17-.85Q323.52,32.9,315.6,11.74c-.43-1.14-.84-2.28-1.27-3.42-.11-.28-.26-.54-.4-.81l-.28.05c0,.3-.08.6-.08.9,0,11.12,0,22.24,0,33.36a33,33,0,0,0,.77,6.15,5,5,0,0,0,3.84,4l4.68,1.29Z"/><path d="M321.53,128.88v2.58h-24v-2.58c1.56-.18,3.07-.31,4.56-.53A4.21,4.21,0,0,0,306,124q0-19.6,0-39.2a.9.9,0,0,0-.3-.64,5.34,5.34,0,0,0-.56.86q-2.57,6.36-5.11,12.73-6.42,16-12.81,32.09c-.33.83-.81.83-1.49.88s-.95-.34-1.16-.91q-8.51-22.84-17-45.68c-.12-.31-.29-.61-.44-.91l-.25,0a4.8,4.8,0,0,0-.1.69c0,11.55,0,23.1,0,34.65a15,15,0,0,0,1.14,6.18,4.51,4.51,0,0,0,2.79,2.63c1.72.55,3.46,1,5.29,1.57v2.53H254.1v-2.63c.91-.16,1.85-.29,2.77-.48,4.11-.82,5.64-2.53,5.84-6.71.14-2.83.19-5.67.2-8.5q0-12.57,0-25.14a13.42,13.42,0,0,0-.31-2.74,6.19,6.19,0,0,0-4.45-4.83,16.73,16.73,0,0,0-1.72-.44c-2.22-.47-2.22-.46-2-2.93.3,0,.61,0,.92,0,5.58,0,11.15,0,16.73,0a1.07,1.07,0,0,1,1.2.84q7.36,19.37,14.78,38.72c.14.37.29.73.56,1.4,5-13.83,11-27,15.38-40.88h17.47v2.55c-1.19.2-2.39.39-3.58.62-3,.57-3.84,1.63-3.84,4.65q0,10.25,0,20.49,0,9,0,18c0,2.88,1.06,4.23,3.88,4.86C319.1,128.52,320.27,128.67,321.53,128.88Z"/><path d="M189.15,118.12v-1c0-8.68.05-17.36,0-26a42.13,42.13,0,0,0-.79-6.55,4.27,4.27,0,0,0-3.25-3.5c-1.79-.53-3.6-1-5.46-1.54V77.1h22.08v2.47c-1.57.41-3.14.82-4.73,1.22a4.32,4.32,0,0,0-3.37,3.59,12.28,12.28,0,0,0-.32,1.55c-.15,1.9-.36,3.81-.36,5.72q0,19.55,0,39.1v1.36c-1.09,0-2.07,0-3,0-.25,0-.53-.33-.71-.57q-9-12.07-17.9-24.16L157.06,88.2c-.11-.15-.24-.3-.49-.6,0,.41-.1.64-.1.88,0,9-.06,18.08,0,27.12a53.75,53.75,0,0,0,.73,7.55,5.36,5.36,0,0,0,4.42,4.62c1.5.36,3,.75,4.55,1.15v2.55H144V128.9c1.41-.37,2.79-.77,4.2-1.08,2.73-.59,3.94-2.48,4.25-5a46.81,46.81,0,0,0,.37-5.42c0-9.3,0-18.61,0-27.91,0-4.54-1.7-7-5.95-8.67-1.25-.48-2.56-.81-3.87-1.21V77.08c.39,0,.75,0,1.1,0,4.49,0,9,0,13.46,0a1.77,1.77,0,0,1,1.63.82q14.56,19.8,29.15,39.57c.19.26.4.51.6.77Z"/><path d="M90.86,104.25c0-7.33,1.91-14,6.76-19.64,5.77-6.69,13.19-9.53,21.94-8.79,12.44,1,21.29,10.37,23.23,22.52,1.13,7.1.59,14-2.81,20.48-4.36,8.26-11.22,13-20.59,13.89-13.11,1.2-24.1-6.72-27.46-20-.7-2.76-.9-5.64-1.33-8.46Zm9.25.26c.1,1.68.14,3.36.3,5a29.86,29.86,0,0,0,3.71,12.38c4.57,7.85,13,8.9,19.17,6.17,4.24-1.88,6.72-5.41,8.36-9.58,2.17-5.47,2.53-11.2,2.24-17a36.9,36.9,0,0,0-2.45-12c-3.14-7.83-9.91-11.67-17.87-10-5.06,1.06-8.27,4.45-10.38,8.95C100.79,93.51,100.18,99,100.1,104.51Z"/><path d="M253.66,103.14c0,7.88-1.58,14.12-5.7,19.52a25.93,25.93,0,0,1-38.22,3.26,26.53,26.53,0,0,1-7.66-14c-1.61-7.48-1.22-14.83,2.27-21.77,4-8,10.53-12.87,19.45-14.2,12.83-1.91,24.64,5.77,28.43,18.35A32,32,0,0,1,253.66,103.14Zm-9.2,1.27c-.18-2.26-.27-4.54-.56-6.79a28.09,28.09,0,0,0-3.77-11.45,15,15,0,0,0-21.33-4.38,19.36,19.36,0,0,0-6.73,10.66,46.68,46.68,0,0,0-1.14,18.43,27.6,27.6,0,0,0,4.13,11.94c5,7.67,14.19,7.88,19.72,4.73,3.56-2,5.69-5.21,7.2-8.89C243.85,114.09,244.33,109.29,244.46,104.41Z"/><path d="M380.28,53.11a3.82,3.82,0,0,0-.41.68c-.68,2.16-2.26,2.43-4.31,1.95L375,37.24c1,0,1.89-.05,2.79,0,.22,0,.47.47.57.77a29.54,29.54,0,0,0,4.57,9.57c4.08,5.25,9.46,7,15.5,5.51,3.95-.95,6.19-3.83,6.45-7.88A11,11,0,0,0,397.7,33.7c-3.66-1.49-7.36-2.87-11-4.37a18.37,18.37,0,0,1-7.31-5.26c-3.66-4.4-4.64-14.08,2-19.7,5.66-4.78,12.08-5.46,18.91-3,1.69.62,3.27,1.52,5,2.32.09-.12.23-.3.35-.49C407,1,407,1,409.87,1.34l.32,18.05c-1,0-1.87.05-2.74,0-.22,0-.47-.46-.58-.75-.79-2.2-1.44-4.45-2.33-6.6A14.46,14.46,0,0,0,399,5.1c-3.94-2.51-9.44-2.18-12.65.62-4,3.51-3,10.11.33,13.08a20.46,20.46,0,0,0,6,3.44c3.6,1.53,7.26,2.94,10.82,4.54a15.5,15.5,0,0,1,7.11,5.93,13.78,13.78,0,0,1,1.89,7.16,15.08,15.08,0,0,1-2.81,9.67,17.86,17.86,0,0,1-12.2,7.14,26.15,26.15,0,0,1-16.57-3.27Z"/><path d="M78.44,79.52c.65-2.27,2.15-3.06,4.58-2.28V95.11a24.27,24.27,0,0,1-2.44,0c-.23,0-.52-.41-.62-.68-.94-2.52-1.76-5.1-2.8-7.58a14,14,0,0,0-2.24-3.48,11.25,11.25,0,0,0-11.44-4,7.71,7.71,0,0,0-6.38,5.8,9.21,9.21,0,0,0,2.79,9.47c2,1.86,4.54,2.76,7,3.82,3.77,1.63,7.61,3.12,11.27,5a12.69,12.69,0,0,1,7.15,9.41,16.11,16.11,0,0,1-10.7,18.51c-6.33,2.29-12.5,1.5-18.54-1.15-.9-.4-1.77-.86-2.73-1.32a20.38,20.38,0,0,0-1.1,1.86,1.36,1.36,0,0,1-1.56.88c-.62-.06-1.24,0-2.06,0L48.08,113h3c.73,1.93,1.35,3.91,2.19,5.79,1.89,4.2,4.62,7.71,9,9.55a14,14,0,0,0,10.24.24c3.35-1.17,5.27-4.08,5.45-8.06A11,11,0,0,0,71,109.53c-3.8-1.56-7.65-3-11.46-4.57a19,19,0,0,1-6.76-4.7c-4.07-4.37-5.08-14.4,1.59-20.17A17.77,17.77,0,0,1,67.29,75.8a22.31,22.31,0,0,1,10.13,3.28l.6.34A2.88,2.88,0,0,0,78.44,79.52Z"/><path d="M381.21,128.82v2.63H358.64v-2.51c1.69-.32,3.35-.54,5-1,2.06-.54,2.34-1.17,1.62-3.16-1.39-3.8-2.83-7.58-4.2-11.39a1,1,0,0,0-1.13-.8c-5.84,0-11.68,0-17.52,0a1.23,1.23,0,0,0-1,.54c-1.21,3.58-2.44,7.15-3.48,10.78-.58,2,.09,3,2.05,3.72a19.84,19.84,0,0,0,2.76.75c.9.18,1.82.25,2.82.37v2.63H325.15v-2.62l2.2-.46a8.14,8.14,0,0,0,6.06-4.91c1.54-3.53,2.95-7.11,4.35-10.7q7-17.79,13.83-35.6a1.26,1.26,0,0,1,1.41-1c2.07.05,2.07,0,2.85,2q8.71,22.55,17.43,45.11c1.3,3.36,3.86,4.94,7.29,5.39Zm-21.93-19.67-8.22-21-8.09,21Z"/><path d="M296,53.16c.06.12.09.15.09.18.18,2.49.18,2.49-2.33,2.49h-20.3v-2.6c1.67-.31,3.3-.52,4.89-.92,2.12-.54,2.42-1.19,1.68-3.21-1.4-3.83-2.84-7.65-4.23-11.48a.9.9,0,0,0-1-.7c-5.87,0-11.75,0-17.62,0a1.22,1.22,0,0,0-1,.56c-1.19,3.48-2.42,7-3.42,10.5-.69,2.43-.07,3.38,2.37,4.11,1.69.51,3.45.78,5.21,1.17.41,2.52.4,2.54-2.11,2.54H240V53.16l2.06-.43a8,8,0,0,0,6-4.67c1.63-3.66,3.1-7.4,4.56-11.14q6.92-17.69,13.77-35.4a1.31,1.31,0,0,1,1.48-1c2,.06,2,0,2.74,1.9Q279.32,24.85,288,47.32a8.21,8.21,0,0,0,6.87,5.62C295.25,53,295.63,53.08,296,53.16Zm-38.21-19.7h16.33L265.92,12.4Z"/><path d="M155.44,55.78H112.9V53.13l3.33-.4c2.66-.32,3.87-1.62,3.89-4.3,0-2.87,0-5.74,0-8.61q0-14.94,0-29.89c0-3-.72-4.07-3.57-5-1.18-.39-2.41-.65-3.67-1V1.33h22.87V3.9c-1.48.3-3,.55-4.42.91a3.48,3.48,0,0,0-3,3.61c0,.26,0,.53,0,.79q0,19,0,37.9a14.94,14.94,0,0,0,.21,2.36,3.25,3.25,0,0,0,2.89,3A36.15,36.15,0,0,0,145,52a5.05,5.05,0,0,0,3.25-2.4c1.77-3,3.53-5.94,5.18-9,.4-.74.73-1.14,1.59-1a12.12,12.12,0,0,0,1.6,0Z"/><path d="M205.12,39.64,204,55.75H161.43V53.16c1.4-.2,2.83-.37,4.24-.63a3.28,3.28,0,0,0,2.85-3,13.32,13.32,0,0,0,.15-1.87q0-18.81,0-37.61c0-.49,0-1-.07-1.48A3.66,3.66,0,0,0,166,5.23c-1.49-.5-3-.92-4.57-1.39V1.32h22.89v2.6c-1.35.25-2.68.46-4,.76-2.56.59-3.46,1.75-3.47,4.39,0,4,0,7.92,0,11.88q0,12.57,0,25.14a26.88,26.88,0,0,0,.21,3.15,3.28,3.28,0,0,0,3,3.21,33.25,33.25,0,0,0,13.81-.58,5.18,5.18,0,0,0,2.38-1.63,40.53,40.53,0,0,0,5.66-9.47c.4-.91.84-1.29,1.8-1.15A10.45,10.45,0,0,0,205.12,39.64Z"/><path d="M106.07,1.32V3.87c-1.81.33-3.57.57-5.29,1-1.92.46-2.65,1.45-2.8,3.44,0,.36,0,.72,0,1.09q0,19.06,0,38.11c0,3.09.85,4.21,3.86,4.92,1.37.33,2.78.53,4.25.8v2.55H81.62V53.13c1.42-.14,2.83-.26,4.23-.41,2.69-.29,3.89-1.56,3.9-4.27q0-19.6,0-39.2c0-2.49-.58-3.24-2.94-4.06a25.52,25.52,0,0,0-2.56-.74c-.86-.2-1.74-.33-2.64-.5V1.32Z"/><path d="M234,3.87c-1.77.32-3.49.56-5.19,1-2,.46-2.8,1.54-2.91,3.58,0,.33,0,.66,0,1q0,19.06,0,38.11c0,3,.9,4.22,3.89,4.91,1.37.32,2.77.53,4.23.8v2.62h-1.1c-7.39,0-14.78,0-22.17,0-1.06,0-1.34-.33-1.22-1.29a11.77,11.77,0,0,0,0-1.43c1.5-.15,2.9-.27,4.3-.42,2.64-.28,3.9-1.65,3.9-4.29q0-19.55,0-39.1c0-2.49-.6-3.38-3-4.13-1.66-.52-3.36-.89-5.14-1.35V1.31H234Z"/><path d="M76,153.82v-1.64H336.47v1.64Z"/><path d="M261.08,172.12h2.19v16.32L251.6,176.49v11.23h-2.18V171.29l11.66,11.09Z"/><path d="M221.21,179.86a8.25,8.25,0,0,1-16.5,0,8.25,8.25,0,0,1,16.5,0ZM213,185.78a5.88,5.88,0,1,0-6-6A6,6,0,0,0,213,185.78Z"/><path d="M232.18,181.16v6.66H230c0-.31-.06-.59-.06-.88,0-4.65,0-9.29,0-13.94,0-.84.25-1.08,1.06-1,1.58.09,3.16,0,4.74.13a3.48,3.48,0,0,1,3.29,2.67c.87,2.68-.15,4.78-3.08,6.25l4.7,6.59c-1.84.54-2.59.3-3.57-1.06-1.17-1.63-2.32-3.28-3.52-4.89a4.56,4.56,0,0,0-1-.78Zm.1-2c1.6-.13,3.3.45,4.27-1.3a2.37,2.37,0,0,0-.09-2.79c-1.13-1.33-2.71-.77-4.18-.86Z"/><path d="M139.46,171l7.31,16.86a17.8,17.8,0,0,1-2.15,0c-.24,0-.51-.36-.63-.62-.39-.83-.73-1.69-1-2.55a.9.9,0,0,0-1-.7c-1.81,0-3.63,0-5.44,0a1.38,1.38,0,0,0-.94.61,10.15,10.15,0,0,0-1,2.13,1.36,1.36,0,0,1-1.7,1,10.67,10.67,0,0,0-1.33,0Zm2.31,10.89-2.4-5.49-2.56,5.49Z"/><path d="M300.79,187.89c-.81,0-1.46,0-2.1,0a1,1,0,0,1-.62-.49,12.91,12.91,0,0,1-.58-1.36c-.85-2-.85-2-3.08-2-1.19,0-2.38.06-3.56,0a1.25,1.25,0,0,0-1.46,1c-.18.52-.54,1-.7,1.52a1.7,1.7,0,0,1-2.2,1.34,8.38,8.38,0,0,0-.94-.06L293.48,171Zm-7.41-11.49-2.52,5.46h4.9Z"/><path d="M123.94,175.39c-3.52-2-6.37-1.79-8.49.52a6.28,6.28,0,0,0-.34,7.53,5.88,5.88,0,0,0,4.08,2.35,6.31,6.31,0,0,0,4.69-1.44,18.14,18.14,0,0,1,0,2.32,1.18,1.18,0,0,1-.68.7,8.14,8.14,0,0,1-8.31-1,7.75,7.75,0,0,1-3.09-7.29c.44-6,6.84-8.92,11.68-6.6a.92.92,0,0,1,.47.61C124,173.83,123.94,174.55,123.94,175.39Z"/><path d="M196.38,178v2.16h-5.49v7.55h-2.19V172.06h7.63v2.15H191V178Z"/><path d="M157.66,172c0,2.94,0,5.77,0,8.61,0,1.38,0,2.77,0,4.15,0,.76.24,1,1,.94,1.28-.05,2.55,0,3.89,0v2.1h-7V172Z"/><path d="M274.69,171.95h2.22v15.74h-2.22Z"/><path d="M174.26,172h2.12v15.75h-2.12Z"/></g></svg>