<svg id="Layer_1" data-name="Layer 1" xmlns="http://www.w3.org/2000/svg" width="671.08" height="306.96" viewBox="0 0 671.08 306.96"><defs><style>.cls-1{fill:#21211f;}.cls-2{fill:#dcdddf;}.cls-3{fill:#356283;}.cls-4{fill:#c5e5ec;}.cls-5{fill:#18b4c1;}.cls-6{fill:#043d5a;}.cls-7{fill:#aac5cc;}.cls-8{fill:#219fac;}</style></defs><title>zola</title><g id="_2fmx6N.tif" data-name="2fmx6N.tif"><path class="cls-1" d="M190.15,273.86a.2.2,0,0,0-.1-.21l-.17-.17a66.27,66.27,0,0,1-7.37-16.71,55.8,55.8,0,0,1-1.56-7.28c-.47-2.83-.74-5.68-1-8.53a42.81,42.81,0,0,1,0-6.42c.18-2.5.37-5,.78-7.48a74.28,74.28,0,0,1,2.43-10.46,67.26,67.26,0,0,1,5.41-12.54,65.18,65.18,0,0,1,9-12.54c1.5-1.62,3-3.28,4.59-4.76a72.46,72.46,0,0,1,14.53-10.3,78.82,78.82,0,0,1,9.46-4.12,62.11,62.11,0,0,1,16.69-3.64,68.45,68.45,0,0,1,33.76,5.38,84,84,0,0,1,9.49,5,70.3,70.3,0,0,1,20.48,19.77,69.07,69.07,0,0,1,11.93,35.8v6a71.61,71.61,0,0,1-4.08,20.57,70.5,70.5,0,0,1-10.92,19.56A75.56,75.56,0,0,1,292,292.24l-.68.56-.78.57-.25.17-1.49,1.08-.22.18a107.55,107.55,0,0,1-10,5.8,58.58,58.58,0,0,1-6.7,2.61,68,68,0,0,1-14.63,3.36.88.88,0,0,0-.77.14l-1.21.05c-.27,0-.6-.23-.75.21H244.07c-.17-.38-.48-.21-.75-.21l-1.2-.06a.45.45,0,0,0-.53-.1,68.08,68.08,0,0,1-10.34-1.91,77.06,77.06,0,0,1-10.4-3.67,47,47,0,0,1-5.82-3,1.24,1.24,0,0,0-.79-.46c-1.76-1.15-3.58-2.19-5.32-3.39s-3.44-2.7-5.16-4a82.07,82.07,0,0,1-7.07-6.87,2.15,2.15,0,0,1-.3-.63c0-.5-.44-.74-.76-1a44.15,44.15,0,0,1-5.29-7.41Zm59.1-79.29a43.15,43.15,0,1,0,43.15,43.72A43.16,43.16,0,0,0,249.26,194.57Z"/><path class="cls-1" d="M121.36,300.74c-.87,3.19-2.68,4.59-6,4.59q-23.79,0-47.58,0-28.76,0-57.52-.08c-4,0-6-2.06-6-6,0-4.85,0-9.69,0-14.54a6.14,6.14,0,0,1,1.64-4.39q8.38-9.33,16.73-18.67l25-27.9,25.11-28,8.45-9.42a5.68,5.68,0,0,0,.35-.47c-.32-.32-.67-.18-1-.18q-37.15,0-74.29,0c-3.13,0-5.22-1.1-6.29-4v-9.69c.44-1.82.12-3.66.17-5.49,0-.56.41-1.2-.17-1.72v-.5c.88-.52,1-1.61,1.75-2.28a4.75,4.75,0,0,1,2.68-1.18,15.26,15.26,0,0,1,2,0l85,0c6.62,0,13.25.06,19.87,0a5.59,5.59,0,0,1,5.88,5.83c-.11,4.88-.07,9.77,0,14.66a7.57,7.57,0,0,1-2.53,5.44c-1.7,1.8-3.34,3.66-5,5.52q-3.57,4-7.12,8.07c-2.55,2.91-5.09,5.83-7.68,8.71-2.17,2.42-4.36,4.83-6.52,7.25-2.58,2.9-5.2,5.77-7.72,8.73-1.61,1.9-3.37,3.71-5,5.59l-.22.27-.25.29-.19.21c-2.42,2.57-4.78,5.2-7.05,7.91l-.29.32-.67.76-.18.2c-3.38,3.81-6.81,7.57-10.17,11.4q-4,4.56-8.1,9.06c-2.45,2.69-4.86,5.43-7.28,8.15-.33.37-.63.76-.95,1.14l-.12.24.2,0,1.86,0h73.39c3.26,0,5.23,1.6,5.87,4.75Z"/><path class="cls-1" d="M671.08,302.48c-.92,2.12-2.51,2.85-4.81,2.81-6-.12-12-.08-18,0a4.11,4.11,0,0,1-4.21-2.78c-3.63-8.54-7.28-17.07-10.89-25.62a1.38,1.38,0,0,0-1.5-1q-30.44,0-60.87,0a1.52,1.52,0,0,0-1.62,1.1c-3.2,7.16-6.44,14.3-9.64,21.46a46.64,46.64,0,0,1-2.54,5.32,3.1,3.1,0,0,1-2.78,1.53c-6.75,0-13.5,0-20.25,0-3.13,0-4.22-3.24-3.17-5.72.9-2.13,1.9-4.21,2.74-6.37a22.57,22.57,0,0,1,1.86-3.71l.22-.66c.3,0,.28-.24.31-.43l.17-.31c.8-1.85,1.55-3.73,2.4-5.55,1.16-2.49,2.35-5,3.44-7.48s2.44-5,3.48-7.64c.49-1.23,1.19-2.44,1.68-3.67.94-2.36,2.27-4.54,3.06-7,.36-1.11,1.27-2,1.66-3.21l.15-.26c.33-.82.63-1.64,1-2.45.83-1.9,1.7-3.78,2.49-5.7a42.09,42.09,0,0,1,2-4.21c1.46-2.67,2.49-5.54,3.82-8.27,1.79-3.69,3.48-7.44,5.17-11.19,1.49-3.3,2.91-6.64,4.41-9.94,1.17-2.57,2.5-5.07,3.58-7.68,1.79-4.31,3.94-8.45,5.76-12.75,2.12-5,4.55-9.87,6.84-14.8.56-1.2,1.12-2.39,1.63-3.61a3,3,0,0,1,2.91-1.89q10.31-.07,20.62,0c1.67,0,2.59,1.23,3.21,2.65q2.75,6.23,5.47,12.48,5.48,12.57,11,25.14c1.75,4,3.58,7.93,5.33,11.91q6.18,14.1,12.31,28.22,10.48,24,21,47.94c.17.39.2.88.63,1.13Zm-49.39-51.74-20-45.58L581,250.74Z"/><path class="cls-2" d="M424.77,0c0,.36.25.45.58.5a36.59,36.59,0,0,1,17.72,7.61,37.85,37.85,0,0,1,9.69,11.11,40.68,40.68,0,0,1,4.72,12.86,38.16,38.16,0,0,1,.15,10.11,34.38,34.38,0,0,1-4.14,13.35,49.81,49.81,0,0,1-7.54,10.67c-1.75,1.87-3.33,3.89-5.2,5.64a148.67,148.67,0,0,1-11.42,9.65c-4.39,3.35-9,6.39-13.64,9.34-3.53,2.24-7.2,4.3-10.88,6.3-4.19,2.28-8.46,4.37-12.73,6.49-1,.49-2,.84-3.07,1.26-.09-2.15.85-4.1,1.37-6.11q1.57-6.1,2.8-12.27c1.1-5.48,1.92-11,2.6-16.56.54-4.42.94-8.85,1.1-13.28a99.76,99.76,0,0,0-1.37-22.31A53.77,53.77,0,0,0,390.83,20a11.1,11.1,0,0,0-2.36-3.59v-.46c1-1.2,1.95-2.43,3-3.59a35.76,35.76,0,0,1,9.83-7.76A34.56,34.56,0,0,1,411.21.93c.8-.15,1.83,0,2.37-.93h9.69c.25.32.5.33.75,0Z"/><path class="cls-3" d="M248.55,91.51c-1.61-1-3.25-2-4.84-3.11-3.21-2.15-6.48-4.21-9.51-6.64s-5.9-4.51-8.69-6.95c-1.6-1.4-3.06-3-4.61-4.47l-.21-.21,0,0-.47-.48,0,0-.22-.24a73.87,73.87,0,0,1-9.07-11.45,39.6,39.6,0,0,1-2.21-4.17,36.59,36.59,0,0,1-3.25-12c-.08-.65-.66-1.26-.17-2q0-1.62,0-3.23a27.2,27.2,0,0,1,1.43-8.62A38.51,38.51,0,0,1,240,.19c.37,0,.73-.12,1.09-.19h6.21c.11.23.33.2.53.22a37.32,37.32,0,0,1,14.95,4.84,38.55,38.55,0,0,1,11.9,10.85l.22.48c-.54,0-.76.41-1,.79a40.81,40.81,0,0,0-5.1,12,84.51,84.51,0,0,0-2.58,20.17c-.06,3.31,0,6.61.22,9.91.2,2.63.25,5.28.56,7.89.58,5,1.28,10,2.18,15q1.57,8.63,3.8,17.12c.51,1.91,1,3.83,1.43,5.75-2.15-1.2-4.58-1.71-6.72-3-2.69-1.66-5.63-2.89-8.43-4.35-1.55-.81-3.07-1.69-4.59-2.56-1.81-1-3.6-2.1-5.4-3.15L249,91.8l-.22-.1Z"/><path class="cls-4" d="M388.47,15.91v.46c-.17.11-.4.18-.49.33a51.46,51.46,0,0,0-3,5.66,62.55,62.55,0,0,0-3.34,11.33,94,94,0,0,0-1.56,15c-.12,2.63,0,5.28.14,7.92.2,4.53.6,9,1,13.54.5,5.12,1.46,10.16,2.36,15.21.74,4.17,1.72,8.29,2.82,12.38.67,2.46,1.2,5,1.79,7.43-2.72-.75-5.12-2.23-7.65-3.39-2.91-1.34-5.75-2.83-8.55-4.38-3.34-1.85-6.6-3.83-9.88-5.79-4.59-2.74-9-5.8-13.35-8.87-2.75-1.93-5.28-4.18-7.85-6.36-1.85-1.57-3.63-3.23-5.38-4.91a29.8,29.8,0,0,1-3.71-4.55c1.23-1.75,2.69-3.33,4-5.06,5.88-8,9.12-16.85,8.21-27a38.23,38.23,0,0,0-4.77-15.36A44.59,44.59,0,0,0,331.76,10,36.46,36.46,0,0,1,348,1.26c2-.5,4-.84,6-1.26h7a.8.8,0,0,0,.67.25,35.94,35.94,0,0,1,12.54,3.5A38.62,38.62,0,0,1,388.47,15.91Z"/><path class="cls-5" d="M274.91,16.39l-.22-.48a3.54,3.54,0,0,0,.34-.36,36.75,36.75,0,0,1,20.2-14.16c2.3-.67,4.67-.93,7-1.39h7a2.31,2.31,0,0,0,.56.2A38.29,38.29,0,0,1,331.4,9.89a13.71,13.71,0,0,1-1.5,1.91A32,32,0,0,0,323,21.25a36.47,36.47,0,0,0-3.23,9.28,39.12,39.12,0,0,0-.47,11.56c.13,1.55.51,3,.75,4.56a29,29,0,0,0,2.34,7,37.5,37.5,0,0,0,4.79,8,34.39,34.39,0,0,0,4.45,5.34,96.75,96.75,0,0,1-12.48,11.82,179.65,179.65,0,0,1-24.55,16.46q-9,5.14-18.52,9.43c-.33.15-.65.39-1.05.22a7,7,0,0,1,.12-.73A211.51,211.51,0,0,0,282.88,60c.56-9.32.41-18.6-1.57-27.77A43.16,43.16,0,0,0,274.91,16.39Z"/><path class="cls-3" d="M0,174.73c.58.51.18,1.16.17,1.72,0,1.83.27,3.67-.17,5.49Z"/><path class="cls-2" d="M243.32,306.75c.27,0,.59-.17.75.21h-.75Q243.33,306.85,243.32,306.75Z"/><path class="cls-2" d="M254.51,307c.15-.43.48-.2.75-.21q0,.1,0,.21Z"/><path class="cls-1" d="M451.36,305.32c-.54,0-1.07-.07-1.61-.07H397.46c-.66,0-1.32,0-2-.09a3,3,0,0,1-2.54-2.8c0-.37,0-.74,0-1.12q0-63.16,0-126.32c0-2.93,1.59-4,4.07-4.11,6.21-.18,12.42-.08,18.63,0,1.82,0,3,1.31,3.3,3.33,0,.33-.05.66-.05,1q0,51.87,0,103.74c0,.33.06.65.09,1l.2.43a1.9,1.9,0,0,0,1.09.1h50.07c.37,0,.73-.06,1.1-.09,3,.52,4.06,1.75,4.06,4.91q0,8.18,0,16.35a3.9,3.9,0,0,1-2.52,3.44c-.54.16-1.11.25-1.66.37Z"/><path class="cls-6" d="M274.91,16.39a43.16,43.16,0,0,1,6.4,15.87c2,9.17,2.13,18.45,1.57,27.77a211.51,211.51,0,0,1-7.71,44.1,7,7,0,0,0-.12.73c-.18.16-.31.48-.64.21-.47-1.92-.92-3.84-1.43-5.75q-2.25-8.48-3.8-17.12c-.91-5-1.6-10-2.18-15-.3-2.62-.35-5.26-.56-7.89-.26-3.3-.29-6.61-.22-9.91a84.51,84.51,0,0,1,2.58-20.17,40.81,40.81,0,0,1,5.1-12C274.14,16.8,274.36,16.39,274.91,16.39Z"/><path class="cls-7" d="M388.23,105.13c-.59-2.48-1.13-5-1.79-7.43-1.11-4.09-2.09-8.22-2.82-12.38-.89-5.05-1.85-10.1-2.36-15.21-.44-4.51-.84-9-1-13.54-.12-2.64-.26-5.29-.14-7.92a94,94,0,0,1,1.56-15A62.55,62.55,0,0,1,385,22.37a51.46,51.46,0,0,1,3-5.66c.09-.15.32-.22.49-.33A11.1,11.1,0,0,1,390.83,20a53.77,53.77,0,0,1,4.66,14.4,99.76,99.76,0,0,1,1.37,22.31c-.16,4.43-.56,8.86-1.1,13.28-.68,5.56-1.5,11.08-2.6,16.56q-1.24,6.17-2.8,12.27c-.52,2-1.45,4-1.37,6.11C388.78,105.1,388.57,105.35,388.23,105.13Z"/><path class="cls-8" d="M331.4,9.89l.36.09a44.6,44.6,0,0,1,7.49,9.51A38.23,38.23,0,0,1,344,34.85c.91,10.11-2.33,18.92-8.21,27-1.27,1.73-2.72,3.31-4,5.06l-.19.05a34.39,34.39,0,0,1-4.45-5.34,37.5,37.5,0,0,1-4.79-8,29,29,0,0,1-2.34-7c-.24-1.52-.62-3-.75-4.56a39.12,39.12,0,0,1,.47-11.56A36.47,36.47,0,0,1,323,21.25a32,32,0,0,1,6.86-9.45A13.71,13.71,0,0,0,331.4,9.89Z"/><path class="cls-8" d="M418.92,279.8c0-.33-.09-.65-.09-1q0-51.87,0-103.74c0-.33,0-.66.05-1,.25.34.13.72.13,1.08q0,51.7,0,103.4C419,279,419,279.39,418.92,279.8Z"/><path class="cls-8" d="M471.38,280.24c-.37,0-.73.09-1.1.09H420.2a1.9,1.9,0,0,1-1.09-.1c.33,0,.66-.08,1-.08h50.44A7.23,7.23,0,0,1,471.38,280.24Z"/><path class="cls-7" d="M451.36,305.32h19.89c-.27.28-.62.18-.94.18h-18C452,305.5,451.63,305.59,451.36,305.32Z"/><path class="cls-7" d="M121.36,300.74l0-15.41c.24.23.18.53.18.82q0,6.83,0,13.66C121.57,300.13,121.65,300.48,121.36,300.74Z"/><path class="cls-7" d="M318.5,240.6v-6A20.52,20.52,0,0,1,318.5,240.6Z"/><path class="cls-2" d="M205.26,36.54q0,1.62,0,3.23A5.24,5.24,0,0,1,205.26,36.54Z"/><path class="cls-2" d="M195.63,281.56c.32.29.71.54.76,1C195.57,282.66,195.58,282.13,195.63,281.56Z"/><path class="cls-2" d="M67.54,249.58l.29-.32c0,.21.32.44.08.61S67.61,249.75,67.54,249.58Z"/><path class="cls-2" d="M214.24,297.52a1.24,1.24,0,0,1,.79.46C214.67,298,214.29,298,214.24,297.52Z"/><path class="cls-2" d="M291.33,292.8l.68-.56C292,292.74,291.72,292.8,291.33,292.8Z"/><path class="cls-2" d="M220.2,69.63l.47.48A.46.46,0,0,1,220.2,69.63Z"/><path class="cls-2" d="M256.47,306.69a.88.88,0,0,1,.77-.14C257,306.8,256.74,306.74,256.47,306.69Z"/><path class="cls-2" d="M535.58,288.8l-.22.66C535.34,289.21,535.24,288.93,535.58,288.8Z"/><path class="cls-2" d="M241.6,306.59a.45.45,0,0,1,.53.1A.48.48,0,0,1,241.6,306.59Z"/><path class="cls-2" d="M288.6,294.79l.22-.18Z"/><path class="cls-2" d="M290.31,293.53l.25-.17Z"/><path class="cls-2" d="M536.06,288.06l-.17.31Z"/><path class="cls-7" d="M40.28,280.55l-.2,0,.12-.24Z"/><path class="cls-2" d="M190.15,273.86l.19.29Z"/><path class="cls-2" d="M189.89,273.48l.17.17Z"/><path class="cls-2" d="M551.93,253.27l-.15.26Z"/><path class="cls-2" d="M66.69,250.54l.18-.2Z"/><path class="cls-2" d="M74.89,241.34l.19-.21Z"/><path class="cls-2" d="M75.33,240.85l.22-.27Z"/><path class="cls-2" d="M220,69.36l.22.24Z"/><path class="cls-2" d="M249,91.8l.23.17Z"/><path class="cls-2" d="M248.55,91.51l.27.19Z"/><path class="cls-2" d="M220.69,70.14l.21.21Z"/></g></svg>